<?xml version="1.0" encoding="UTF-8" standalone="no"?>
<svg
   xmlns:dc="http://purl.org/dc/elements/1.1/"
   xmlns:cc="http://creativecommons.org/ns#"
   xmlns:rdf="http://www.w3.org/1999/02/22-rdf-syntax-ns#"
   xmlns:svg="http://www.w3.org/2000/svg"
   xmlns="http://www.w3.org/2000/svg"
   viewBox="0 0 572 400"
   height="400"
   width="572"
   xml:space="preserve"
   id="svg2"
   version="1.1"><metadata
     id="metadata8"><rdf:RDF><cc:Work
         rdf:about=""><dc:format>image/svg+xml</dc:format><dc:type
           rdf:resource="http://purl.org/dc/dcmitype/StillImage" /></cc:Work></rdf:RDF></metadata><defs
     id="defs6"><clipPath
       id="clipPath26"
       clipPathUnits="userSpaceOnUse"><path
         id="path24"
         d="m 2142.85,2250 c 414.22,0 750,-335.78 750,-750 0,-414.22 -335.78,-750 -750,-750 -414.22,0 -750,335.78 -750,750 0,414.22 335.78,750 750,750 z" /></clipPath><clipPath
       id="clipPath32"
       clipPathUnits="userSpaceOnUse"><path
         id="path30"
         d="M 1390,750 H 2900 V 2250 H 1390 Z" /></clipPath></defs><g
     transform="matrix(1.3333333,0,0,-1.3333333,0,400)"
     id="g10"><g
       transform="scale(0.1)"
       id="g12"><path
         id="path14"
         style="fill:#2c9f41;fill-opacity:1;fill-rule:nonzero;stroke:none"
         d="M 0,0 H 4285.7 V 3000 H 0 Z" /><path
         id="path16"
         style="fill:#f8e005;fill-opacity:1;fill-rule:nonzero;stroke:none"
         d="M 364.301,1500 2142.85,364.301 3921.45,1500 2142.85,2635.7 364.301,1500" /><path
         id="path18"
         style="fill:#26326f;fill-opacity:1;fill-rule:nonzero;stroke:none"
         d="m 2142.85,2250 c 414.22,0 750,-335.78 750,-750 0,-414.22 -335.78,-750 -750,-750 -414.22,0 -750,335.78 -750,750 0,414.22 335.78,750 750,750" /><g
         id="g20"><g
           clip-path="url(#clipPath26)"
           id="g22"><g
             clip-path="url(#clipPath32)"
             id="g28"><path
               id="path34"
               style="fill:#ffffff;fill-opacity:1;fill-rule:nonzero;stroke:none"
               d="m -107.148,0 c 0,1005.94 815.468,1821.45 1821.448,1821.45 1005.93,0 1821.4,-815.51 1821.4,-1821.45 h -107.15 c 0,946.801 -767.5,1714.3 -1714.25,1714.3 C 767.5,1714.3 0,946.801 0,0 h -107.148" /></g></g></g><path
         id="path36"
         style="fill:#2c9f41;fill-opacity:1;fill-rule:nonzero;stroke:none"
         d="m 1742.62,1732.23 64.22,-2.27 0.5,13.24 -52.03,1.84 0.63,18.36 40.82,-1.45 0.43,12.27 -40.82,1.4 0.51,14.3 48.94,-1.72 0.47,13.25 -61.17,2.14 -2.5,-71.36" /><path
         id="path38"
         style="fill:#2c9f41;fill-opacity:1;fill-rule:nonzero;stroke:none"
         d="m 1833.24,1728.36 12.19,-1.06 4.26,48.79 9.96,-50.04 11.21,-0.97 18.48,47.54 -4.26,-48.79 12.19,-1.1 6.21,71.18 -17.78,1.56 -18.51,-47.54 -9.96,50.04 -17.78,1.52 -6.21,-71.13" /><path
         id="path40"
         style="fill:#2c9f41;fill-opacity:1;fill-rule:nonzero;stroke:none"
         d="m 1981.21,1711.64 52.81,-9.06 2.07,12.07 -40.74,6.99 2.77,16.09 33.21,-5.7 2.07,12.07 -33.2,5.7 1.91,11.1 39.45,-6.8 2.11,12.07 -51.56,8.87 -10.9,-63.4" /><path
         id="path42"
         style="fill:#2c9f41;fill-opacity:1;fill-rule:nonzero;stroke:none"
         d="m 2423.91,1619.22 24.8,-10.78 -4.1,-9.38 -24.77,10.78 4.07,9.38" /><path
         id="path44"
         style="fill:#2c9f41;fill-opacity:1;fill-rule:nonzero;stroke:none"
         d="m 2439.34,1612.5 9.37,-4.06 -14.26,-32.78 -9.37,4.07 14.26,32.77" /><path
         id="path46"
         style="fill:#2c9f41;fill-opacity:1;fill-rule:nonzero;stroke:none"
         d="m 2643.48,1488.44 c -3.83,-6.02 0.04,-12.74 8.67,-18.21 8.59,-5.5 14.45,-5.31 16.91,-1.4 7.82,12.22 -37.34,30.12 -23.44,51.48 12.04,18.4 32.58,4.1 40.32,-0.86 7.73,-4.92 20.19,-17.69 10.51,-32.38 l -13.13,8.36 c 4.1,6.45 -0.43,12.66 -7.3,17.03 -6.68,4.26 -12.07,6.21 -16.06,-0.04 -6.64,-9.96 37.62,-28.79 24.02,-50.12 -10,-15.7 -27.38,-8.82 -39.02,-1.44 -9.88,6.33 -24.69,21.17 -15.04,36.21 l 13.56,-8.63" /><path
         id="path48"
         style="fill:#2c9f41;fill-opacity:1;fill-rule:nonzero;stroke:none"
         d="m 2539.26,1523.4 55.94,-31.64 6.56,11.52 -45.31,25.67 9.06,15.97 35.51,-20.12 6.01,10.67 -35.51,20.12 7.03,12.42 42.62,-24.14 6.56,11.56 -53.28,30.16 -35.19,-62.19" /><path
         id="path50"
         style="fill:#2c9f41;fill-opacity:1;fill-rule:nonzero;stroke:none"
         d="m 2720.08,1437.77 c -4.14,-5.82 -0.59,-12.73 7.73,-18.63 8.28,-5.94 14.14,-6.05 16.84,-2.3 8.44,11.83 -35.74,32.07 -20.7,52.65 12.93,17.74 32.69,2.39 40.15,-2.97 7.5,-5.31 19.26,-18.71 8.83,-32.89 l -12.7,9.03 c 4.46,6.25 0.28,12.65 -6.36,17.42 -6.45,4.57 -11.76,6.8 -16.06,0.78 -7.15,-9.61 36.06,-30.74 21.37,-51.29 -10.78,-15.16 -27.81,-7.42 -39.02,0.59 -9.57,6.83 -23.56,22.42 -13.13,36.95 l 13.05,-9.34" /><path
         id="path52"
         style="fill:#2c9f41;fill-opacity:1;fill-rule:nonzero;stroke:none"
         d="m 1498.83,1776.41 c 24.29,0 24.29,-43.52 0,-43.52 -24.26,0 -24.26,43.52 0,43.52 z m 31.91,-17.82 c -2.42,19.57 -18.63,33.71 -36.25,31.53 -17.61,-2.15 -29.96,-19.77 -27.58,-39.38 2.43,-19.57 18.68,-33.67 36.29,-31.52 17.62,2.19 29.92,19.8 27.54,39.37" /><path
         id="path54"
         style="fill:#2c9f41;fill-opacity:1;fill-rule:nonzero;stroke:none"
         d="m 2830.55,1399.73 c 20.04,-13.71 -4.53,-49.61 -24.57,-35.9 -20.04,13.71 4.53,49.61 24.57,35.9 z m 16.29,-32.74 c 9.06,17.54 3.63,38.36 -12.11,46.53 -15.78,8.16 -35.9,0.58 -45,-16.96 -9.07,-17.5 -3.64,-38.32 12.11,-46.48 15.78,-8.17 35.89,-0.59 45,16.91" /><path
         id="path56"
         style="fill:#2c9f41;fill-opacity:1;fill-rule:nonzero;stroke:none"
         d="m 1680.98,1744.88 c -5.47,0 -16.02,-0.08 -16.02,-0.08 0,0 -0.66,36.1 -0.78,44.89 14.77,0.19 15.27,0.19 20.98,0.19 10.62,-0.15 15.07,-8.08 17.3,-13.2 0.82,-5.66 0.86,-8.01 1.02,-12.93 -0.63,-5.27 -2.23,-9.65 -6.68,-13.83 -7.35,-4.96 -11.06,-5.04 -15.82,-5.04 z m 29.14,45.16 c -7.85,12.66 -23.75,13.24 -23.75,13.24 l -35.71,-0.55 1.25,-71.4 c 0,0 28.32,0 35.86,0.7 7.54,0.7 16.37,5.04 22.15,12.66 5.78,7.58 5.7,16.56 5.67,22.11 -0.04,5.5 0.82,13.04 -5.47,23.24" /><path
         id="path58"
         style="fill:#2c9f41;fill-opacity:1;fill-rule:nonzero;stroke:none"
         d="m 1604.53,1770.2 c -2.77,-2.35 -10.58,-2.43 -10.58,-2.43 l -22.11,-1.44 c 0,0 -0.86,12.42 -1.29,18.32 3.36,-0.04 20.93,1.44 21.25,1.44 3.55,0.12 7.54,0.47 7.54,0.47 0,0 2.89,-0.11 5.74,-2.61 0.58,-0.36 3.01,-2.5 2.89,-6.14 -0.08,-3.63 -2.15,-6.91 -3.44,-7.61 z m 8.05,-11.14 c 0,0 7.46,6.33 9.37,15.39 1.92,9.03 -3.67,16.41 -6.05,18.56 -2.35,2.11 -7.35,7.11 -14.73,6.83 -7.34,-0.31 -43.75,-2.85 -43.75,-2.85 l 3.99,-71.33 13.2,0.94 -1.84,26.49 22.97,1.6 5.55,0.39 c 0,0 7.11,-11.64 7.77,-18.83 0.47,-4.26 0.39,-7.81 0.39,-7.81 h 12.89 c 0,0 0.36,12.69 -3.32,20.27 -3.67,7.62 -6.44,10.35 -6.44,10.35" /><path
         id="path60"
         style="fill:#2c9f41;fill-opacity:1;fill-rule:nonzero;stroke:none"
         d="m 2340.74,1675.86 c 23.44,-6.21 12.31,-48.28 -11.17,-42.07 -23.48,6.25 -12.3,48.32 11.17,42.07 z m 26.25,-25.39 c 2.7,19.53 -9.37,37.34 -26.95,39.76 -17.58,2.43 -34.02,-11.44 -36.72,-30.97 -2.7,-19.53 9.38,-37.35 26.95,-39.77 17.58,-2.46 34.03,11.45 36.72,30.98" /><path
         id="path62"
         style="fill:#2c9f41;fill-opacity:1;fill-rule:nonzero;stroke:none"
         d="m 2260.39,1691.29 c -3.4,-1.29 -10.78,1.17 -10.78,1.17 l -21.37,5.86 c 0,0 3.24,12.03 4.77,17.73 3.16,-1.13 20.23,-5.46 20.54,-5.58 3.4,-1.06 7.27,-1.99 7.27,-1.99 0,0 2.7,-1.06 4.61,-4.38 0.39,-0.51 1.99,-3.36 0.7,-6.72 -1.25,-3.4 -4.29,-5.86 -5.74,-6.09 z m 3.99,-13.13 c 0,0 9.1,3.56 13.86,11.45 4.81,7.93 1.92,16.76 0.35,19.49 -1.52,2.81 -4.61,9.14 -11.64,11.29 -7.07,2.15 -42.3,11.64 -42.3,11.64 l -19.57,-68.67 12.81,-3.48 6.88,25.63 22.26,-6.02 5.35,-1.4 c 0,0 2.89,-13.36 1.21,-20.36 -0.97,-4.14 -2.18,-7.53 -2.18,-7.53 l 12.18,-4.22 c 0,0 4.46,11.91 3.48,20.31 -0.98,8.4 -2.69,11.87 -2.69,11.87" /><path
         id="path64"
         style="fill:#2c9f41;fill-opacity:1;fill-rule:nonzero;stroke:none"
         d="m 2520.94,1586.45 c -3.48,-0.98 -10.67,2.1 -10.67,2.1 l -20.74,7.62 c 0,0 4.26,11.76 6.25,17.27 3.05,-1.37 19.69,-7.15 20,-7.27 3.28,-1.33 7.07,-2.65 7.07,-2.65 0,0 2.58,-1.25 4.22,-4.69 0.35,-0.59 1.68,-3.52 0.12,-6.8 -1.53,-3.28 -4.77,-5.47 -6.25,-5.58 z m 2.85,-13.4 c 0,0 9.41,2.73 14.84,10.23 5.39,7.46 3.28,16.49 1.99,19.42 -1.32,2.89 -3.82,9.49 -10.66,12.22 -6.87,2.74 -41.17,15.2 -41.17,15.2 l -25.31,-66.84 12.46,-4.49 9.06,24.92 21.64,-7.85 5.2,-1.91 c 0,0 1.79,-13.52 -0.51,-20.36 -1.29,-4.06 -2.81,-7.3 -2.81,-7.3 l 11.75,-5.24 c 0,0 5.47,11.49 5.2,19.93 -0.27,8.43 -1.68,12.07 -1.68,12.07" /><path
         id="path66"
         style="fill:#2c9f41;fill-opacity:1;fill-rule:nonzero;stroke:none"
         d="m 2172.19,1715.04 c -3.32,-1.37 -10.82,0.9 -10.82,0.9 l -21.49,5.35 c 0,0 2.97,12.11 4.38,17.81 3.16,-1.01 20.35,-4.96 20.66,-5.04 3.4,-0.97 7.31,-1.87 7.31,-1.87 0,0 2.73,-0.94 4.68,-4.22 0.43,-0.51 2.07,-3.28 0.9,-6.72 -1.21,-3.44 -4.18,-5.94 -5.62,-6.21 z m 4.29,-13.05 c 0,0 9.03,3.75 13.64,11.8 4.57,8.01 1.48,16.76 -0.12,19.49 -1.64,2.74 -4.84,9.02 -11.95,11.02 -7.11,1.99 -42.54,10.62 -42.54,10.62 l -17.93,-69.18 12.89,-3.12 6.29,25.78 22.34,-5.47 5.39,-1.33" /><path
         id="path68"
         style="fill:#2c9f41;fill-opacity:1;fill-rule:nonzero;stroke:none"
         d="m 2442.15,1611.76 c -1.84,0.82 -3.75,1.36 -5.67,1.99 -5.58,-10.55 -17.96,-18.05 -28.98,-10.51 -20.04,13.71 4.57,49.65 24.61,35.94 4.84,-3.32 6.99,-7.93 7.34,-12.81 3.01,-1.29 6.29,-1.88 9.34,-3.28 1.29,-0.59 2.54,-1.21 3.83,-1.76 1.01,13.12 -4.92,25.7 -16.37,31.6 -15.74,8.16 -35.9,0.59 -44.96,-16.91 -9.06,-17.5 -3.67,-38.32 12.11,-46.49 15.74,-8.16 35.9,-0.58 44.96,16.92 0.35,0.7 0.66,1.4 0.98,2.1 -2.39,1.06 -4.77,2.15 -7.19,3.21" /><path
         id="path70"
         style="fill:#ffffff;fill-opacity:1;fill-rule:nonzero;stroke:none"
         d="m 2403.63,1742.42 -15.86,-11.52 6.06,-18.67 -15.86,11.52 -15.9,-11.52 6.09,18.67 -15.89,11.52 h 19.64 l 6.06,18.63 6.05,-18.63 h 19.61" /><path
         id="path72"
         style="fill:#ffffff;fill-opacity:1;fill-rule:nonzero;stroke:none"
         d="m 1500.04,1644.65 18.91,-13.75 -7.23,-22.23 18.9,13.75 18.87,-13.75 -7.19,22.23 18.87,13.75 h -23.36 l -7.19,22.19 -7.22,-22.19 h -23.36" /><path
         id="path74"
         style="fill:#ffffff;fill-opacity:1;fill-rule:nonzero;stroke:none"
         d="m 2327.07,1544.38 13.09,-9.5 -5,-15.35 13.08,9.49 13.05,-9.49 -5,15.35 13.09,9.5 h -16.14 l -5,15.39 -4.92,-15.39 h -16.25" /><path
         id="path76"
         style="fill:#ffffff;fill-opacity:1;fill-rule:nonzero;stroke:none"
         d="m 1656.91,1368.44 8.01,-5.63 -3.08,-9.49 7.96,5.74 7.93,-5.74 -3.04,9.34 7.97,5.78 h -9.85 l -3.01,9.33 -3.04,-9.33 h -9.85" /><path
         id="path78"
         style="fill:#ffffff;fill-opacity:1;fill-rule:nonzero;stroke:none"
         d="m 1596.8,1351.52 -7.11,-22.18 h -23.32 l 18.9,-13.75 -7.22,-22.19 18.9,13.71 18.87,-13.71 -7.23,22.19 18.91,13.75 h -23.36 l -7.19,22.18" /><path
         id="path80"
         style="fill:#ffffff;fill-opacity:1;fill-rule:nonzero;stroke:none"
         d="m 1479.61,1260.31 15.74,-11.44 -6.01,-18.52 15.78,11.45 15.74,-11.45 -6.02,18.52 15.75,11.44 h -19.46 l -6.01,18.52 -6.02,-18.52 h -19.49" /><path
         id="path82"
         style="fill:#ffffff;fill-opacity:1;fill-rule:nonzero;stroke:none"
         d="m 1832.62,1478.16 15.43,-11.21 -5.86,-18.12 15.43,11.21 15.39,-11.21 -5.86,18.12 15.43,11.21 h -19.1 l -5.86,18.13 -5.9,-18.13 h -19.1" /><path
         id="path84"
         style="fill:#ffffff;fill-opacity:1;fill-rule:nonzero;stroke:none"
         d="m 1731.76,1254.18 14.26,-10.35 -5.43,-16.72 14.21,10.31 14.22,-10.31 -5.43,16.72 14.22,10.35 h -17.58 l -5.43,16.72 -5.42,-16.72 h -17.62" /><path
         id="path86"
         style="fill:#ffffff;fill-opacity:1;fill-rule:nonzero;stroke:none"
         d="m 1710.62,1175.7 13.09,-9.53 -5,-15.35 13.09,9.49 13.04,-9.49 -5,15.35 13.09,9.53 h -16.17 l -4.96,15.35 -4.96,-15.35 h -16.22" /><path
         id="path88"
         style="fill:#ffffff;fill-opacity:1;fill-rule:nonzero;stroke:none"
         d="m 1811.91,1115.98 18.91,-13.75 -7.23,-22.23 18.87,13.75 18.91,-13.75 -7.23,22.23 18.91,13.75 h -23.36 l -7.23,22.18 -7.19,-22.18 h -23.36" /><path
         id="path90"
         style="fill:#ffffff;fill-opacity:1;fill-rule:nonzero;stroke:none"
         d="m 2117.19,1385.2 15.86,-11.53 -6.06,-18.67 15.86,11.52 15.9,-11.52 -6.09,18.67 15.86,11.53 h -19.69 l -5.98,18.63 -6.05,-18.63 h -19.61" /><path
         id="path92"
         style="fill:#ffffff;fill-opacity:1;fill-rule:nonzero;stroke:none"
         d="m 2045.9,1317.66 13.08,-9.5 -5,-15.39 13.05,9.53 13.09,-9.53 -5,15.39 13.08,9.5 h -16.17 l -4.96,15.35 -5,-15.35 h -16.17" /><path
         id="path94"
         style="fill:#ffffff;fill-opacity:1;fill-rule:nonzero;stroke:none"
         d="m 2091.72,1265.94 7.97,-5.78 -3.05,-9.38 7.97,5.78 7.93,-5.78 -3.05,9.38 7.97,5.78 h -9.84 l -3.01,9.33 -3.05,-9.33 h -9.84" /><path
         id="path96"
         style="fill:#ffffff;fill-opacity:1;fill-rule:nonzero;stroke:none"
         d="m 2203.87,1319.65 15.86,-11.53 -6.06,-18.67 15.86,11.53 15.9,-11.53 -6.09,18.67 15.89,11.53 h -19.64 l -6.06,18.63 -5.98,-18.63 h -19.68" /><path
         id="path98"
         style="fill:#ffffff;fill-opacity:1;fill-rule:nonzero;stroke:none"
         d="m 2112.27,1169.84 18.9,-13.75 -7.19,-22.18 18.87,13.71 18.91,-13.71 -7.23,22.18 18.91,13.75 h -23.36 l -7.23,22.19 -7.11,-22.19 h -23.47" /><path
         id="path100"
         style="fill:#ffffff;fill-opacity:1;fill-rule:nonzero;stroke:none"
         d="m 2132.58,916.48 6.05,-4.41 -2.3,-7.109 6.05,4.418 6.06,-4.418 -2.31,7.109 6.06,4.41 h -7.5 l -2.31,7.11 -2.3,-7.11 h -7.5" /><path
         id="path102"
         style="fill:#ffffff;fill-opacity:1;fill-rule:nonzero;stroke:none"
         d="m 2286.84,1085.9 13.04,-9.49 -4.96,-15.39 13.05,9.49 13.08,-9.49 -5,15.39 13.09,9.49 h -16.17 l -5,15.35 -4.92,-15.35 h -16.21" /><path
         id="path104"
         style="fill:#ffffff;fill-opacity:1;fill-rule:nonzero;stroke:none"
         d="m 2341.37,1003.55 15.86,-11.519 -6.06,-18.672 15.86,11.563 15.86,-11.563 -6.05,18.672 15.89,11.519 h -19.64 l -6.06,18.68 -6.05,-18.68 h -19.61" /><path
         id="path106"
         style="fill:#ffffff;fill-opacity:1;fill-rule:nonzero;stroke:none"
         d="m 2440.04,1059.34 13.05,9.49 h -16.14 l -5,15.39 -4.92,-15.39 h -16.25 l 13.09,-9.49 -5,-15.36 13.08,9.5 13.09,-9.5 -5,15.36" /><path
         id="path108"
         style="fill:#ffffff;fill-opacity:1;fill-rule:nonzero;stroke:none"
         d="m 2494.18,1093.75 13.09,-9.49 -5,-15.39 13.08,9.49 13.09,-9.49 -5,15.39 13.08,9.49 h -16.17 l -5,15.35 -5,-15.35 h -16.17" /><path
         id="path110"
         style="fill:#ffffff;fill-opacity:1;fill-rule:nonzero;stroke:none"
         d="m 2491.6,1022.81 15.86,-11.52 -6.05,-18.63 15.86,11.52 15.89,-11.52 -6.09,18.63 15.9,11.52 h -19.65 l -6.05,18.67 -6.06,-18.67 h -19.61" /><path
         id="path112"
         style="fill:#ffffff;fill-opacity:1;fill-rule:nonzero;stroke:none"
         d="m 2497.89,944.488 13.09,-9.488 -5,-15.391 13.08,9.493 13.09,-9.493 -5,15.391 13.08,9.488 h -16.25 l -4.92,15.352 -4.92,-15.352 h -16.25" /><path
         id="path114"
         style="fill:#ffffff;fill-opacity:1;fill-rule:nonzero;stroke:none"
         d="m 2572.54,1080.31 13.08,-9.49 -4.96,-15.35 13.05,9.49 13.09,-9.49 -5,15.35 13.08,9.49 h -16.17 l -5,15.39 -5,-15.39 h -16.17" /><path
         id="path116"
         style="fill:#ffffff;fill-opacity:1;fill-rule:nonzero;stroke:none"
         d="m 2628.05,1119.18 15.9,-11.52 -6.1,-18.68 15.9,11.53 15.86,-11.53 -6.06,18.68 15.86,11.52 h -19.61 l -6.05,18.63 -5.98,-18.63 -19.25,0.08" /><path
         id="path118"
         style="fill:#ffffff;fill-opacity:1;fill-rule:nonzero;stroke:none"
         d="m 2673.12,1177.7 15.9,-11.53 -6.09,-18.67 15.9,11.52 15.86,-11.52 -6.06,18.67 15.86,11.53 h -19.61 l -6.09,18.63 -6.06,-18.63 h -19.61" /><path
         id="path120"
         style="fill:#ffffff;fill-opacity:1;fill-rule:nonzero;stroke:none"
         d="m 2637.66,1247.23 18.9,-13.75 -7.22,-22.19 18.9,13.71 18.91,-13.71 -7.23,22.19 18.87,13.75 h -23.32 l -7.23,22.18 -7.22,-22.18 h -23.36" /><path
         id="path122"
         style="fill:#ffffff;fill-opacity:1;fill-rule:nonzero;stroke:none"
         d="m 2752.11,1235.9 13.05,-9.49 -4.96,-15.39 13.04,9.53 13.09,-9.53 -5,15.39 13.08,9.49 h -16.17 l -4.96,15.39 -4.96,-15.39 h -16.21" /></g></g></svg>