<?xml version="1.0" encoding="UTF-8"?>
<!DOCTYPE svg PUBLIC "-//W3C//DTD SVG 1.1//EN" "http://www.w3.org/Graphics/SVG/1.1/DTD/svg11.dtd">
<!-- Creator: CorelDRAW X6 -->
<svg xmlns="http://www.w3.org/2000/svg" xml:space="preserve" width="4.16666in" height="4.16666in" version="1.1" style="shape-rendering:geometricPrecision; text-rendering:geometricPrecision; image-rendering:optimizeQuality; fill-rule:evenodd; clip-rule:evenodd"
viewBox="0 0 4167 4167"
 xmlns:xlink="http://www.w3.org/1999/xlink">
 <defs>
  <style type="text/css">
   <![CDATA[
    .fil0 {fill:#DD3D38;fill-rule:nonzero}
    .fil1 {fill:#FBDD23;fill-rule:nonzero}
   ]]>
  </style>
 </defs>
 <g id="Layer_x0020_1">
  <metadata id="CorelCorpID_0Corel-Layer"/>
  <polygon class="fil0" points="0,4167 4167,4167 4167,0 0,0 "/>
  <polygon class="fil1" points="1042,417 1409,1547 447,849 1636,849 674,1547 "/>
  <polygon class="fil1" points="1905,524 2165,225 2130,620 1926,280 2291,435 "/>
  <polygon class="fil1" points="2294,863 2650,688 2464,1039 2408,646 2684,931 "/>
  <polygon class="fil1" points="2300,1401 2696,1387 2384,1631 2493,1250 2628,1622 "/>
  <polygon class="fil1" points="1921,1745 2291,1885 1909,1989 2157,1680 2138,2076 "/>
 </g>
</svg>
