<?xml version="1.0" encoding="UTF-8"?>
<!DOCTYPE svg PUBLIC "-//W3C//DTD SVG 1.1//EN" "http://www.w3.org/Graphics/SVG/1.1/DTD/svg11.dtd">
<!-- Creator: CorelDRAW X6 -->
<svg xmlns="http://www.w3.org/2000/svg" xml:space="preserve" width="4.16666in" height="4.16666in" version="1.1" style="shape-rendering:geometricPrecision; text-rendering:geometricPrecision; image-rendering:optimizeQuality; fill-rule:evenodd; clip-rule:evenodd"
viewBox="0 0 4167 4167"
 xmlns:xlink="http://www.w3.org/1999/xlink">
 <defs>
  <style type="text/css">
   <![CDATA[
    .str4 {stroke:#C0963D;stroke-width:6.19291;stroke-linecap:round;stroke-linejoin:round}
    .str7 {stroke:#C0963D;stroke-width:6.35827}
    .str2 {stroke:#C0963D;stroke-width:7.45669;stroke-linecap:square}
    .str5 {stroke:#C0963D;stroke-width:7.98819}
    .str3 {stroke:#C0963D;stroke-width:8.25591;stroke-linecap:round;stroke-linejoin:round}
    .str6 {stroke:#C0963D;stroke-width:8.82283}
    .str1 {stroke:#C0963D;stroke-width:8.82283;stroke-linecap:round;stroke-linejoin:round}
    .str0 {stroke:#C0963D;stroke-width:16.5118;stroke-linecap:round;stroke-linejoin:round}
    .fil3 {fill:none;fill-rule:nonzero}
    .fil0 {fill:#282828;fill-rule:nonzero}
    .fil4 {fill:#C0963D;fill-rule:nonzero}
    .fil1 {fill:#D0343A;fill-rule:nonzero}
    .fil2 {fill:#FEFEFE;fill-rule:nonzero}
   ]]>
  </style>
 </defs>
 <g id="Layer_x0020_1">
  <metadata id="CorelCorpID_0Corel-Layer"/>
  <polygon class="fil0" points="0,4167 4167,4167 4167,2083 0,2083 "/>
  <polygon class="fil1" points="0,2083 4167,2083 4167,0 0,0 "/>
  <polygon class="fil2" points="0,2778 4167,2778 4167,1389 0,1389 "/>
  <path class="fil2" d="M2083 2735c138,0 271,-11 349,-33 33,-6 33,-23 33,-45 33,-11 16,-50 39,-50 -23,6 -28,-39 -56,-33 0,-39 -39,-44 -72,-33 -66,22 -182,27 -293,27 -111,-5 -226,-5 -293,-27 -33,-11 -72,-6 -72,33 -28,-6 -33,39 -56,33 23,0 6,39 39,50 0,22 0,39 34,45 77,22 209,33 348,33l0 0z"/>
  <path class="fil3 str0" d="M2083 2735c138,0 271,-11 349,-33 33,-6 33,-23 33,-45 33,-11 16,-50 39,-50 -23,6 -28,-39 -56,-33 0,-39 -39,-44 -72,-33 -66,22 -182,27 -293,27 -111,-5 -226,-5 -293,-27 -33,-11 -72,-6 -72,33 -28,-6 -33,39 -56,33 23,0 6,39 39,50 0,22 0,39 34,45 77,22 209,33 348,33l0 0z"/>
  <path class="fil2" d="M2089 2100l476 442 -34 -802c-5,-122 -111,-94 -187,-50 -78,50 -166,50 -260,17 -94,33 -182,33 -260,-17 -77,-44 -182,-72 -187,50l-34 802 487 -442 0 0z"/>
  <path class="fil3 str1" d="M2089 2100l476 442 -34 -802c-5,-122 -111,-94 -187,-50 -78,50 -166,50 -260,17 -94,33 -182,33 -260,-17 -77,-44 -182,-72 -187,50l-34 802 487 -442 0 0z"/>
  <path class="fil4" d="M2222 1845l16 387 45 44 -17 -425c-11,0 -39,0 -44,-5l0 0z"/>
  <polygon class="fil4" points="2105,2188 2172,2492 2150,2514 2127,2497 2089,2226 2105,2497 2083,2525 2061,2497 2077,2226 2040,2497 2017,2514 1995,2492 2061,2188 2105,2188 "/>
  <polygon class="fil3 str2" points="2105,2188 2172,2492 2150,2514 2127,2497 2089,2226 2105,2497 2083,2525 2061,2497 2077,2226 2040,2497 2017,2514 1995,2492 2061,2188 2105,2188 "/>
  <path class="fil4" d="M1691 1712l-33 780 -56 50 34 -802c16,-11 44,-28 55,-28l0 0z"/>
  <path class="fil4" d="M1758 1768l-28 652 -56 57 34 -753c11,11 44,38 50,44l0 0z"/>
  <path class="fil4" d="M1818 1817l-22 544 -45 44 28 -621c11,11 33,27 39,33l0 0z"/>
  <path class="fil4" d="M1884 1845l-22 464 -44 36 22 -516c11,5 33,17 44,17l0 0z"/>
  <path class="fil4" d="M1945 1845l-16 387 -45 44 17 -425c11,0 39,0 44,-5l0 0z"/>
  <path class="fil4" d="M2476 1712l33 780 56 50 -34 -802c-16,-11 -44,-28 -55,-28l0 0z"/>
  <path class="fil4" d="M2409 1768l28 652 56 57 -34 -753c-11,11 -44,38 -50,44l0 0z"/>
  <path class="fil4" d="M2348 1817l22 544 45 44 -28 -621c-11,11 -33,27 -39,33l0 0z"/>
  <path class="fil4" d="M2283 1845l22 464 44 36 -22 -516c-11,5 -33,17 -44,17l0 0z"/>
  <polygon class="fil2" points="1934,2054 1801,2525 1984,2553 2061,2199 1934,2054 "/>
  <polygon class="fil3 str3" points="1934,2054 1801,2525 1984,2553 2061,2199 1934,2054 "/>
  <polygon class="fil2" points="2233,2054 2365,2525 2183,2553 2105,2199 2233,2054 "/>
  <polygon class="fil3 str3" points="2233,2054 2365,2525 2183,2553 2105,2199 2233,2054 "/>
  <polyline class="fil3 str1" points="2277,2215 2261,2254 2175,2171 "/>
  <path class="fil3 str1" d="M2165 2492l19 -92 17 -93 41 55 18 -63 57 58 -29 106 -40 -66 -22 67 -41 -64m-62 -92l61 92"/>
  <polyline class="fil3 str1" points="1890,2215 1906,2254 1992,2171 "/>
  <polyline class="fil3 str1" points="1950,2117 1968,2287 2023,2215 "/>
  <line class="fil3 str1" x1="2001" y1="2243" x2="2031" y2= "2346" />
  <path class="fil3 str1" d="M2001 2492l-19 -92 -17 -93 -41 55 -18 -63 -57 58 29 106 40 -66 22 67 41 -64m62 -92l-61 92"/>
  <polyline class="fil3 str1" points="1840,2514 1877,2462 1901,2542 1934,2486 1956,2553 "/>
  <polyline class="fil3 str1" points="2328,2514 2291,2462 2267,2542 2234,2486 2212,2553 "/>
  <path class="fil2" d="M1895 2525c45,6 95,11 134,6 22,0 38,38 -6,44 -39,5 -100,0 -133,-6 -28,-5 -89,-16 -128,-27 -39,-17 -11,-50 11,-45 34,11 78,22 122,28l0 0z"/>
  <path class="fil3 str1" d="M1895 2525c45,6 95,11 134,6 22,0 38,38 -6,44 -39,5 -100,0 -133,-6 -28,-5 -89,-16 -128,-27 -39,-17 -11,-50 11,-45 34,11 78,22 122,28l0 0z"/>
  <path class="fil2" d="M2272 2525c-45,6 -95,11 -133,6 -23,0 -39,38 5,44 39,5 100,0 132,-6 28,-5 89,-16 128,-27 39,-17 11,-50 -11,-45 -34,11 -78,22 -122,28l0 0z"/>
  <path class="fil3 str1" d="M2272 2525c-45,6 -95,11 -133,6 -23,0 -39,38 5,44 39,5 100,0 132,-6 28,-5 89,-16 128,-27 39,-17 11,-50 -11,-45 -34,11 -78,22 -122,28l0 0z"/>
  <path class="fil2" d="M1758 2503c-34,-6 -50,33 -39,55 5,-11 28,-11 33,-22 6,-17 -5,-17 6,-33l0 0z"/>
  <path class="fil3 str1" d="M1758 2503c-34,-6 -50,33 -39,55 5,-11 28,-11 33,-22 6,-17 -5,-17 6,-33l0 0z"/>
  <path class="fil2" d="M1890 2605c0,-22 22,-19 22,-41 0,-11 -6,-28 -17,-28 -11,0 -22,11 -22,22 -5,22 17,25 17,47z"/>
  <path class="fil3 str1" d="M1890 2605c0,-22 22,-19 22,-41 0,-11 -6,-28 -17,-28 -11,0 -22,11 -22,22 -5,22 17,25 17,47z"/>
  <path class="fil2" d="M2048 2542c33,0 30,44 14,66 0,-16 -28,-22 -28,-33 0,-17 25,-17 14,-33l0 0z"/>
  <path class="fil3 str1" d="M2048 2542c33,0 30,44 14,66 0,-16 -28,-22 -28,-33 0,-17 25,-17 14,-33l0 0z"/>
  <path class="fil2" d="M2409 2503c34,-6 50,33 39,55 -5,-11 -28,-11 -33,-22 -6,-17 5,-17 -6,-33l0 0z"/>
  <path class="fil3 str1" d="M2409 2503c34,-6 50,33 39,55 -5,-11 -28,-11 -33,-22 -6,-17 5,-17 -6,-33l0 0z"/>
  <path class="fil2" d="M2277 2605c0,-22 -22,-19 -22,-41 0,-11 6,-28 17,-28 11,0 22,11 22,22 5,22 -17,25 -17,47l0 0z"/>
  <path class="fil3 str1" d="M2277 2605c0,-22 -22,-19 -22,-41 0,-11 6,-28 17,-28 11,0 22,11 22,22 5,22 -17,25 -17,47l0 0z"/>
  <path class="fil2" d="M2119 2542c-33,0 -30,44 -14,66 0,-16 28,-22 28,-33 0,-17 -25,-17 -14,-33z"/>
  <path class="fil3 str1" d="M2119 2542c-33,0 -30,44 -14,66 0,-16 28,-22 28,-33 0,-17 -25,-17 -14,-33z"/>
  <path class="fil3 str4" d="M1769 2514c11,0 28,5 33,11l-33 -11z"/>
  <path class="fil3 str4" d="M1823 2531c6,0 28,5 39,11l-39 -11z"/>
  <path class="fil3 str4" d="M2023 2552c-11,0 -33,0 -39,5l39 -5z"/>
  <path class="fil3 str4" d="M1962 2552c-6,-6 -28,-6 -39,0l39 0z"/>
  <path class="fil2" d="M2398 2514c-11,0 -27,5 -33,11l33 -11z"/>
  <path class="fil3 str4" d="M2398 2514c-11,0 -27,5 -33,11l33 -11z"/>
  <path class="fil2" d="M2343 2531c-6,0 -28,5 -39,11l39 -11z"/>
  <path class="fil3 str4" d="M2343 2531c-6,0 -28,5 -39,11l39 -11z"/>
  <path class="fil2" d="M2144 2552c11,0 33,0 39,5l-39 -5z"/>
  <path class="fil3 str4" d="M2144 2552c11,0 33,0 39,5l-39 -5z"/>
  <path class="fil2" d="M2205 2552c6,-6 28,-6 39,0l-39 0z"/>
  <path class="fil3 str4" d="M2205 2552c6,-6 28,-6 39,0l-39 0z"/>
  <polyline class="fil3 str1" points="2218,2117 2200,2287 2145,2215 "/>
  <path class="fil2" d="M2083 2272c227,-174 207,-430 207,-430 -6,1 -12,2 -18,2 -48,0 -161,-27 -187,-62 -28,31 -144,62 -191,62 -6,0 -12,-1 -18,-2 0,0 -20,255 207,430l0 0z"/>
  <path class="fil3 str5" d="M2083 2272c227,-174 207,-430 207,-430 -6,1 -12,2 -18,2 -48,0 -161,-27 -187,-62 -28,31 -144,62 -191,62 -6,0 -12,-1 -18,-2 0,0 -20,255 207,430l0 0z"/>
  <path class="fil2" d="M2272 1861c-2,0 -4,0 -6,0 -43,0 -143,-22 -182,-55 -40,31 -142,55 -185,55 -2,0 -4,0 -6,-1 0,10 0,20 1,29 2,34 8,68 17,101 29,103 87,191 171,258 84,-67 142,-155 171,-258 9,-33 15,-67 17,-101 1,-9 1,-19 1,-28l0 0z"/>
  <path class="fil4" d="M2010 2177l0 -336c-41,13 -85,21 -109,21 -2,0 -4,0 -6,-1 0,10 0,20 1,29 2,34 8,68 17,101 19,70 52,132 97,186z"/>
  <path class="fil4" d="M2153 1840l0 342c47,-55 81,-119 101,-191 9,-33 15,-67 17,-101 1,-9 1,-19 1,-28l0 0c-2,0 -4,0 -6,0 -26,0 -72,-8 -114,-22z"/>
  <line class="fil3 str1" x1="2164" y1="2243" x2="2134" y2= "2346" />
  <path class="fil4" d="M2071 2704c0,0 -1,-1 -3,-2 -3,-1 -6,-4 -7,-6 -1,-2 -2,-6 -2,-8 0,-1 0,-1 -1,-2 -4,-1 -13,-2 -19,-2 -4,0 -12,-1 -17,-1 -12,-1 -16,-1 -18,1 -1,1 -1,2 -2,3 0,1 -1,3 -3,4 -1,1 -2,3 -2,3 0,0 0,1 -1,1 0,0 -1,0 -1,1 -1,1 -4,3 -5,4 -1,0 -2,1 -2,1 -2,1 -15,1 -17,0 -1,0 -2,-1 -3,-1 -1,0 -2,0 -3,-1 -1,-1 -1,-1 -1,-2 1,-2 2,-2 9,-2 4,0 5,0 7,-1 3,-1 7,-5 7,-5 0,0 1,-1 1,-1 1,0 1,-2 1,-3 0,-1 1,-3 1,-4 1,-2 1,-4 -1,-9 -2,-6 -3,-7 -5,-9 -3,-2 -3,-4 0,-7 1,-1 3,-4 4,-5 2,-2 2,-3 3,-3 1,0 2,1 3,3 2,4 5,10 5,11 0,0 0,1 1,2 0,1 1,2 1,3 1,2 1,3 6,3 5,0 5,0 5,-6 0,-2 1,-4 1,-5 0,0 1,-1 1,-2 0,-1 -3,-8 -3,-9 -1,-1 -1,-3 1,-6 1,-1 2,-2 2,-2 0,0 1,-1 2,-1 3,-2 7,-2 9,-1 1,1 1,1 2,5 0,4 0,5 2,6 1,1 2,1 3,1 1,0 2,0 2,1 1,1 3,1 11,1 12,0 18,0 19,1 0,0 2,0 4,0 2,0 7,0 10,0 6,0 7,0 8,2l2 1 0 7c0,8 1,9 4,9 3,0 4,-1 4,-4 0,-2 1,-3 1,-3 0,0 1,-1 1,-2 1,-2 5,-6 6,-6 1,0 2,-1 2,-1 1,-1 2,-1 3,-1 4,-1 8,-2 9,-3 1,-1 2,-1 3,-1 2,0 3,0 3,1 1,1 1,2 2,9 0,3 1,6 1,6 0,1 1,4 1,8l0 7 -2 2 -2 2 -17 0c-9,0 -18,0 -19,1 -2,0 -2,1 -2,5 0,1 0,2 -1,3 -1,0 -1,1 -1,2 0,1 -4,4 -6,5 -1,0 -2,1 -2,1 -1,1 -5,3 -6,3 0,0 -1,0 -1,0l0 0zm4 -16c1,-1 1,-1 1,-10l0 -9 -1 -1c-1,-1 -2,-1 -11,-2 -6,0 -11,-1 -12,-1 -1,0 -3,0 -5,0 -2,0 -4,0 -6,0 -8,-1 -13,0 -15,3 -1,1 -1,2 0,3 0,1 1,2 2,2 1,0 2,1 4,1 1,0 5,1 8,1 3,0 8,0 12,0 3,0 8,0 10,0 3,0 5,0 6,1l1 1 0 5c0,5 0,5 1,6 1,1 3,2 4,2 0,0 1,0 2,-1l0 0zm40 -15c1,0 1,-1 1,-2 0,-1 -1,-2 -1,-3 -1,-2 -1,-2 -2,-2 -1,0 -3,1 -5,3 -1,1 -2,3 -1,4 1,2 5,2 8,1zm44 27c-2,-2 -2,-2 -2,-4 0,-2 0,-2 2,-4 3,-3 5,-3 10,0 5,3 7,3 7,1 0,-2 3,-3 6,-3 2,0 3,0 4,1 2,1 2,2 2,5 0,3 0,3 -2,5 -2,2 -2,2 -5,2 -3,0 -5,-2 -5,-4 0,-2 -1,-2 -1,-1 0,0 -1,1 -2,1 -1,0 -4,2 -6,3 -1,1 -2,1 -4,1 -2,0 -3,0 -5,-2l0 0zm48 -3l-1 -1 1 -1c1,-1 2,-2 3,-2 4,-1 6,-3 9,-5 2,-2 3,-3 3,-4 0,0 1,-2 1,-3 1,-2 1,-2 1,-7 0,-5 0,-6 -2,-9 -1,-1 -4,-4 -7,-5 -2,-1 -3,-3 -2,-5 0,-1 2,-4 3,-6 1,-3 3,-5 3,-6 1,-2 3,-2 5,0 1,2 4,6 4,7 0,0 0,1 1,2 1,1 4,5 4,6 0,0 1,2 1,3 1,2 1,3 1,5 0,1 0,3 1,4 1,3 1,13 -1,16 -1,1 -1,2 -2,2 0,0 -1,1 -2,2 -2,2 -7,6 -9,6 0,0 -1,1 -2,1 -1,1 -1,1 -7,1 -6,0 -7,0 -8,-1l0 0zm41 -5c-1,-1 0,-3 0,-4 0,0 1,-1 2,-1 1,0 2,-1 2,-1 0,0 2,-1 3,-1 5,-1 10,-5 10,-9 0,-1 0,-2 0,-3 -1,-1 -10,0 -14,1 -1,0 -2,0 -3,-1l-2 -2 0 -7 0 -7 2 -2c1,-1 3,-3 3,-4 1,-1 1,-2 2,-2 0,0 1,-1 2,-2 2,-2 6,-4 8,-4 1,0 2,-1 2,-1 0,0 1,-1 2,-1 1,0 2,0 3,2 1,1 2,3 2,4 0,1 0,2 1,3 0,1 1,3 1,5 0,2 1,3 1,4 1,1 7,1 8,1 1,0 1,-2 1,-5 0,-3 1,-5 1,-6 0,-1 1,-2 1,-3 1,-2 5,-8 7,-10 1,-1 2,-2 3,-2 0,0 1,-1 2,-1 2,0 2,-1 2,-3 0,-2 -2,-4 -5,-7 -1,-1 -1,-2 -1,-2 0,-1 2,-4 4,-7 1,-1 2,-3 2,-3 0,0 1,-1 2,-2 1,-1 2,-1 3,-1 1,0 2,1 3,5 2,6 2,7 3,11 0,2 1,4 1,4 0,0 3,1 5,2 3,1 5,1 6,2 1,0 2,1 2,1 2,1 4,2 4,3 0,0 0,1 0,1 1,0 3,4 6,8 3,5 3,5 7,5 3,0 4,0 5,-1 1,-1 1,-2 1,-3 0,-2 1,-3 5,-6 1,-1 3,-2 3,-3 2,-2 4,-3 5,-3 0,0 3,1 6,2 4,2 5,2 6,4 3,4 8,5 11,3 1,-1 2,-1 2,-1 0,0 1,0 1,-1 0,-1 -2,-7 -3,-8 0,0 -1,-2 -1,-4 0,-2 -1,-5 -2,-6 -1,-2 -1,-4 -1,-7 0,-3 -1,-6 -1,-8 -1,-2 -1,-4 -1,-5 0,-4 -3,-9 -6,-10 -1,0 -2,-1 -3,-1 -2,-1 -4,-1 -5,0 -1,1 -1,1 -2,1 -1,0 -4,3 -4,4 0,0 -1,0 -2,0 -1,0 -2,0 -3,-2 -1,-1 -2,-2 -2,-3 0,0 -1,-1 -2,-2 -2,-1 -2,-2 -2,-4 0,-1 0,-2 1,-2 1,0 1,-1 1,-1 0,0 1,-1 2,-1 1,0 4,-1 6,-1 6,-1 16,-2 19,0 1,1 2,1 3,1 2,0 6,5 7,7 0,1 1,2 1,2 0,0 1,1 1,2 0,1 1,3 1,4 1,1 1,6 2,14 0,1 1,6 2,9 0,1 1,4 1,6 0,2 1,4 2,5 0,0 1,1 1,2 0,2 5,5 9,5 3,0 7,-2 9,-4 1,-1 3,-3 4,-3 1,0 4,1 5,2 1,2 3,3 5,4 2,1 3,3 2,5 0,1 -1,1 -1,1 0,0 -2,1 -4,1 -2,1 -3,1 -4,1 -1,0 -3,1 -7,2 -3,1 -9,2 -12,3 -6,1 -15,4 -16,4 0,0 -1,1 -3,1 -4,1 -4,1 -4,3 0,2 -5,7 -9,9 -2,1 -3,1 -9,1 -4,0 -7,0 -7,0 -1,0 -1,-1 -1,-2 0,-1 -1,-2 -2,-3 -2,-1 -4,-1 -8,0l-2 1 0 5c0,3 -1,5 -1,6 0,1 -1,2 -1,2 0,1 -2,2 -3,3 -1,1 -4,3 -5,4 -2,2 -4,2 -6,1 -1,-1 -2,-1 -2,-1 -2,0 -6,-2 -8,-3 -2,-1 -5,-6 -5,-8 0,0 0,-1 -1,-2 -1,-1 -2,-1 -4,-1 -2,0 -4,0 -6,1 -1,0 -4,1 -7,1 -3,0 -5,1 -6,1 -1,0 -3,1 -4,1 -3,1 -4,2 -4,5 0,2 0,3 -1,3 0,0 -1,1 -1,2 0,2 -5,6 -8,8 -1,1 -3,2 -5,2 -2,1 -3,1 -8,1 -3,0 -6,0 -6,0l0 0zm81 -24c1,-1 2,-3 0,-4 -2,-1 -4,-1 -7,0 -2,1 -2,1 -2,2 0,1 0,1 1,2 2,1 7,1 8,0l0 0zm-66 -6c2,-1 2,-2 2,-4 -1,-3 -5,-4 -7,-2 -1,1 -1,2 -1,2 0,0 0,1 -1,1 -1,0 -1,1 0,2 0,1 1,1 1,1 1,1 4,0 6,0l0 0zm41 -8c0,-1 0,-3 0,-4 0,-2 -1,-3 -2,-4 -2,-2 -3,-1 -5,1 -1,1 -2,2 -2,5 0,4 0,5 5,5 4,0 4,0 4,-2l0 0zm19 -2c2,-1 2,-1 2,-3 0,-2 -2,-5 -5,-7 -3,-2 -4,-2 -6,0 -1,1 -1,2 0,4 0,1 1,3 1,3 0,1 3,3 4,4 1,0 2,-1 3,-1l0 0zm42 0c3,-1 4,-3 3,-5 -1,-2 -3,-3 -5,-3 -3,0 -5,2 -5,4 0,1 0,2 2,3 1,1 2,1 3,2 0,0 2,0 3,-1l0 0zm-438 39c-1,0 -1,-1 -1,-1 0,0 -5,-3 -6,-3 0,0 -1,-1 -1,-1 0,-1 -1,-3 -1,-5 -1,-3 -1,-6 0,-6 1,0 0,-2 -1,-3 -1,-1 -2,-1 -5,-1 -5,0 -5,0 -7,-2 -1,-1 -2,-2 -2,-5 0,-2 -1,-4 -1,-4 -1,-1 -3,-1 -3,-1 0,0 -1,1 -2,1 -1,0 -2,1 -2,2 0,1 -1,2 -2,3 -1,2 -2,2 -5,2 -2,0 -4,0 -5,-1 -2,-1 -4,-1 -10,-2 -8,-1 -12,0 -13,2 -1,3 -7,8 -10,9 -1,0 -3,1 -4,1 -1,0 -2,1 -3,0 0,0 -3,-1 -6,-1 -6,-1 -8,-2 -8,-4 0,-1 4,-3 5,-2 1,1 4,1 4,0 0,0 1,-1 3,-1 2,0 3,-1 3,-1 0,0 1,-1 2,-1 1,0 2,0 3,-2 1,-1 2,-3 2,-3 0,0 0,-1 1,-2 1,-1 1,-2 1,-3 0,-1 0,-3 1,-4 1,-2 1,-2 0,-6 -1,-2 -1,-4 -2,-4 0,0 -1,-1 -1,-2 -1,-3 0,-5 4,-9 0,0 1,-1 1,-2 0,-2 2,-3 3,-3 1,0 4,3 4,4 0,1 0,2 1,2 1,1 1,3 1,6 1,5 1,10 2,12 1,2 3,4 5,4 1,0 3,0 4,1 2,0 4,1 6,1 3,0 3,0 6,-3 2,-2 3,-3 3,-4 0,-2 -7,-6 -12,-7 -2,0 -3,-3 -3,-5 0,-2 3,-5 5,-7 1,-1 4,-2 7,-3l5 -1 1 -3c3,-5 9,-10 13,-10 2,0 3,0 5,3 1,1 1,2 2,3 2,3 3,6 3,7 0,2 0,5 1,5 1,0 8,7 9,8 0,1 1,1 1,1 1,0 2,3 2,6 0,4 -1,4 -6,4 -3,0 -6,0 -7,1l-2 1 0 3c0,4 1,5 5,5 2,0 3,1 4,1 0,0 1,1 2,0 1,0 2,0 2,1 1,1 1,1 1,7l0 6 2 1c1,0 2,1 2,1 1,1 3,1 4,-1 0,-1 1,-2 1,-3 0,-1 1,-4 1,-8 0,-4 1,-7 1,-9 0,-1 1,-5 1,-8 0,-3 1,-6 1,-7 0,0 1,-4 1,-7 0,-5 0,-7 1,-7 1,-1 1,-2 1,-7l0 -6 -2 -2c-1,-1 -2,-2 -2,-3 0,-2 0,-2 3,-3 1,0 3,-1 4,-2 1,0 2,-1 3,-1 1,-1 4,-3 5,-3 0,0 1,0 2,1 1,1 1,6 0,8 0,1 -1,3 -1,5 0,2 0,4 -1,6 0,1 -1,6 -1,11 0,5 -1,9 -1,10 0,1 -1,3 -1,5 0,2 0,5 -1,8 0,2 -1,6 -1,9 0,2 -1,5 -1,6 0,1 -1,3 -1,5 0,2 -1,4 -1,5 -1,1 -1,2 -1,3 0,1 -3,6 -3,6 0,0 -1,0 -1,1 0,1 -1,1 -2,1 -1,0 -2,1 -3,1 -2,1 -7,2 -9,1l0 0zm-16 -50c1,-1 1,-2 0,-3 -2,0 -3,-3 -3,-5 0,-5 -2,-5 -6,-1 -1,1 -3,3 -4,3l-2 1 1 1c2,2 5,3 9,3 3,0 4,0 5,-1l0 0zm235 41c-1,-2 -1,-2 -1,-5 0,-2 1,-4 1,-6 0,-2 0,-4 1,-4 0,-1 1,-2 1,-3 0,-1 0,-2 2,-4 1,-1 2,-2 2,-3 0,-1 4,-4 5,-4 0,0 1,0 2,-1 1,-1 2,-1 2,-1 1,0 2,-1 3,-1 1,-1 1,-1 1,-6 0,-3 0,-5 -1,-7 0,-1 -1,-3 -1,-3 0,-1 0,-3 0,-6 0,-5 -1,-5 -2,-7 -1,-1 -2,-1 -2,-1 -1,0 -3,-3 -3,-3 4,-4 10,-10 11,-10 1,0 4,1 4,2 0,1 1,4 1,7 0,3 1,7 1,8 0,2 1,7 1,11 0,5 1,9 1,10 0,1 1,5 1,9 0,4 1,9 1,10 1,4 5,6 8,4 1,0 3,-1 5,-1 5,-1 5,-1 5,-8 0,-5 0,-6 -2,-7 -1,-1 -2,-2 -3,-2 -1,0 -2,-2 -2,-3 0,-1 3,-4 4,-4 1,0 2,-1 3,-2 3,-2 5,-3 7,-1 1,1 1,2 2,9 0,5 1,8 1,9 1,1 1,3 1,7 0,3 0,6 1,7 1,2 1,2 0,3 0,1 -1,2 -1,3 0,1 -1,2 -6,2 -2,0 -5,0 -6,1 -1,0 -4,1 -7,1 -11,0 -26,2 -27,2 -1,1 -2,1 -7,1l-6 0 -1 -2 0 0zm16 -11l3 -1 0 -3 0 -3 -2 0c-2,0 -2,0 -4,1 -2,2 -2,4 -1,5 1,0 1,1 1,1 0,0 1,0 3,-1l0 0zm-202 5l-2 -2 0 -4c0,-2 1,-5 1,-6 0,-1 1,-4 1,-6 0,-2 0,-5 1,-6 0,-1 1,-6 1,-10 0,-4 1,-8 1,-9 0,-1 0,-3 0,-4 0,-2 0,-4 1,-6 1,-2 1,-5 1,-8 0,-3 0,-6 1,-6 0,-1 1,-2 1,-3 0,-1 2,-4 3,-4 0,0 1,1 2,3 1,1 3,4 5,5 7,6 6,6 4,8 -1,1 -2,1 -2,1 0,0 -1,1 -2,1 -1,1 -1,2 -1,4 0,2 0,4 -1,5 -1,2 -1,9 -2,16 0,2 0,3 -1,4 0,0 -1,4 -1,8 0,4 0,8 -1,8 0,0 -1,2 -1,3 0,4 -1,8 -2,9 -1,1 -2,1 -4,1 -2,0 -3,0 -4,-2l0 0zm-152 -7c-3,-1 -4,-3 -4,-6 0,-2 0,-3 2,-4 1,-1 3,-2 4,-2 2,0 3,0 4,1 4,3 5,5 2,8 -2,3 -5,3 -8,2l0 0zm591 -8c-2,-1 -2,-2 -2,-4 0,-3 2,-5 5,-7 5,-2 7,-2 8,1 2,4 2,6 -1,9 -2,2 -2,2 -5,2 -4,0 -4,0 -6,-2l0 0zm-619 -1c-3,-1 -5,-4 -4,-8 1,-3 1,-3 6,-3 5,0 6,1 6,5 0,2 0,3 -1,4 -1,1 -4,2 -6,2l0 0zm-21 -6c-3,-3 -3,-6 2,-9 2,-2 4,-1 6,1 4,4 4,6 1,9 -2,1 -2,2 -4,2 -2,0 -3,0 -4,-2l0 0zm67 0c-2,-1 -5,-1 -9,-2 -7,-1 -19,-4 -22,-5 -1,0 -4,-1 -5,-1 -3,-1 -4,-1 -9,-3 -1,0 -5,-1 -8,-2 -3,-1 -6,-2 -7,-2 -1,-1 -3,-1 -3,-1 -1,0 -2,0 -3,-1 -1,-1 -3,-1 -5,-1 -4,0 -7,-2 -8,-4 -1,-2 -1,-3 0,-6 1,-1 1,-2 1,-3 0,0 0,-1 1,-2 1,0 1,-1 1,-1 0,-1 2,-4 4,-6 2,-2 6,-4 8,-4 1,0 2,0 3,-1 1,-1 2,-1 5,-1l4 0 1 -3c1,-1 1,-3 1,-4 0,-1 0,-2 1,-3 0,-1 1,-3 2,-5 1,-6 3,-10 3,-10 1,-1 1,-1 -1,-3 -1,-1 -2,-2 -3,-2 -2,0 -5,1 -5,2 -2,2 -4,3 -6,3 -2,0 -6,-2 -7,-4 -1,-2 -1,-2 0,-4 1,-1 2,-2 3,-3 2,-1 8,0 9,1 1,1 2,1 4,1 2,0 4,-1 4,-1 0,0 1,-1 3,-1 1,0 2,-1 3,-1 0,0 1,-1 2,-1 1,0 2,-1 2,-1 0,0 1,-1 2,-1 1,0 2,0 2,2 1,1 1,2 0,5 0,2 -1,4 -2,5 -1,1 -1,3 -1,4 0,1 0,2 -1,3 -1,1 -1,2 -1,2 0,1 0,2 -1,2 0,0 -1,2 -1,4 0,2 -1,4 -1,4 0,1 -1,2 -1,3 0,1 -1,3 -1,3 0,0 -1,1 -1,2 0,1 0,2 -1,3 -1,1 -1,3 -1,5 0,1 -1,3 -1,4 0,1 -1,2 -1,4 0,1 -1,3 -1,4 -1,1 -1,1 0,3 2,2 6,4 11,3 4,0 4,0 5,-2 1,-1 1,-3 2,-4 0,-1 1,-3 1,-4 0,-1 1,-3 1,-4 0,-3 0,-3 -2,-4 -2,-1 -2,-2 -1,-3 1,-1 3,-2 5,-2 0,0 1,0 2,-1 1,-1 2,-1 2,-1 1,0 2,-1 3,-2 2,-2 4,-2 5,0 1,1 1,2 0,4 0,1 -1,3 -1,5 0,1 0,3 -1,3 0,0 -1,2 -1,3 0,1 -1,3 -1,4 0,1 -1,3 -1,4 0,1 0,3 -1,4 -1,3 -1,5 1,5 0,0 1,1 2,1 1,0 2,1 3,1 1,0 3,0 4,1 1,1 4,1 6,1 3,0 3,0 5,-1 1,-1 2,-3 2,-4 0,-2 1,-3 1,-4 1,-2 0,-4 -2,-6 -3,-3 -2,-6 2,-6 2,0 6,-2 7,-3 3,-3 5,-4 7,-3 2,1 2,3 1,5 0,1 -1,3 -1,4 0,2 -1,5 -2,7 -1,2 -1,5 -2,8 0,2 -1,5 -2,7 -1,2 -1,3 -1,4 0,1 0,2 -1,3 -2,4 -4,5 -10,3l0 0zm-59 -31c2,-2 2,-3 0,-4 -1,0 -2,0 -4,1 -2,1 -3,1 -2,2 0,1 1,2 4,2 0,0 1,-1 2,-1l0 0zm377 21c-3,-1 -4,-2 -4,-6 0,-3 0,-4 4,-6l3 -1 2 1c3,1 5,3 5,5 0,2 -2,5 -4,6 -2,1 -3,1 -5,0l0 0zm-3 -17c-1,-1 -4,-4 -4,-5 0,-3 4,-7 6,-7 1,0 5,2 6,3 2,2 2,6 -1,8 -1,1 -6,1 -8,1l0 0zm-381 -27c-4,-1 -6,-4 -5,-7 1,-4 5,-7 8,-6 2,1 6,4 6,6 0,2 -2,5 -3,5 0,0 -1,0 -1,1 -1,1 -3,1 -5,1l0 0z"/>
  <path class="fil2" d="M2169 1758c5,0 -6,-25 -6,-25 12,13 59,16 59,16 -28,-12 -56,-105 -52,-179 3,-74 -11,-103 -22,-114 -14,-14 -59,-26 -88,-28 -17,-1 -14,13 -14,13 -31,-8 -62,-11 -75,-2 -13,9 -16,52 -6,45 23,-19 43,-2 57,19 12,18 11,68 -6,126 -19,62 -69,123 -69,123 28,0 66,-25 66,-25l-9 38c29,-14 52,-35 52,-35l28 29c9,-12 28,-29 28,-29 0,0 23,25 59,28l0 0z"/>
  <path class="fil3 str6" d="M2169 1758c5,0 -6,-25 -6,-25 12,13 59,16 59,16 -28,-12 -56,-105 -52,-179 3,-74 -11,-103 -22,-114 -14,-14 -59,-26 -88,-28 -17,-1 -14,13 -14,13 -31,-8 -62,-11 -75,-2 -13,9 -16,52 -6,45 23,-19 43,-2 57,19 12,18 11,68 -6,126 -19,62 -69,123 -69,123 28,0 66,-25 66,-25l-9 38c29,-14 52,-35 52,-35l28 29c9,-12 28,-29 28,-29 0,0 23,25 59,28l0 0z"/>
  <path class="fil3 str6" d="M2056 1580c0,0 -16,114 -45,146"/>
  <path class="fil3 str6" d="M2081 1577c0,0 -6,115 -26,152"/>
  <path class="fil3 str6" d="M2103 1582c0,0 0,126 8,148"/>
  <path class="fil3 str6" d="M2130 1588c0,0 6,106 32,145"/>
  <path class="fil4" d="M2028 1525c-1,-10 -4,-18 -7,-23 -14,-20 -34,-37 -57,-19 0,0 8,-25 25,-25 13,-1 43,10 69,54 0,0 -19,-4 -24,0 -9,8 -5,13 -5,13l0 0z"/>
  <path class="fil3 str6" d="M2028 1525c-1,-10 -4,-18 -7,-23 -14,-20 -34,-37 -57,-19 0,0 8,-25 25,-25 13,-1 43,10 69,54 0,0 -19,-4 -24,0 -9,8 -5,13 -5,13l0 0z"/>
  <path class="fil4" d="M1961 1453c2,-6 5,-12 9,-14 14,-9 45,-6 75,2 0,0 -3,-13 14,-13 29,2 74,14 88,28 3,4 7,9 10,17l-1 0c-7,-10 -26,-9 -31,-8 -7,1 -12,1 -22,3 -5,1 -12,2 -16,5 -3,2 -5,11 -10,11 -7,0 -7,-2 -9,-4 -2,-3 -4,-7 -6,-7 -8,1 -20,-5 -35,-17 -16,-12 -22,-15 -42,-14 -20,2 -26,13 -26,13l1 -1 0 0z"/>
  <path class="fil3 str6" d="M1961 1453c2,-6 5,-12 9,-14 14,-9 45,-6 75,2 0,0 -3,-13 14,-13 29,2 74,14 88,28 3,4 7,9 10,17l-1 0c-7,-10 -26,-9 -31,-8 -7,1 -12,1 -22,3 -5,1 -12,2 -16,5 -3,2 -5,11 -10,11 -7,0 -7,-2 -9,-4 -2,-3 -4,-7 -6,-7 -8,1 -20,-5 -35,-17 -16,-12 -22,-15 -42,-14 -20,2 -26,13 -26,13l1 -1 0 0z"/>
  <path class="fil2" d="M2075 1471c5,0 8,-4 8,-8 0,-5 -4,-8 -8,-8 -4,0 -8,4 -8,8 0,5 4,8 8,8z"/>
  <path class="fil3 str7" d="M2272 1861c-2,0 -4,0 -6,0 -43,0 -143,-22 -182,-55 -40,31 -142,55 -185,55 -2,0 -4,0 -6,-1 0,10 0,20 1,29 2,34 8,68 17,101 29,103 87,191 171,258 84,-67 142,-155 171,-258 9,-33 15,-67 17,-101 1,-9 1,-19 1,-28l0 0z"/>
 </g>
</svg>
