<?xml version="1.0" encoding="UTF-8" standalone="no"?>
<svg
   xmlns:dc="http://purl.org/dc/elements/1.1/"
   xmlns:cc="http://creativecommons.org/ns#"
   xmlns:rdf="http://www.w3.org/1999/02/22-rdf-syntax-ns#"
   xmlns:svg="http://www.w3.org/2000/svg"
   xmlns="http://www.w3.org/2000/svg"
   viewBox="0 0 550.66669 400"
   height="400"
   width="550.66669"
   xml:space="preserve"
   id="svg2"
   version="1.1"><metadata
     id="metadata8"><rdf:RDF><cc:Work
         rdf:about=""><dc:format>image/svg+xml</dc:format><dc:type
           rdf:resource="http://purl.org/dc/dcmitype/StillImage" /></cc:Work></rdf:RDF></metadata><defs
     id="defs6" /><g
     transform="matrix(1.3333333,0,0,-1.3333333,0,400)"
     id="g10"><g
       transform="scale(0.1)"
       id="g12"><path
         id="path14"
         style="fill:#ffffff;fill-opacity:1;fill-rule:nonzero;stroke:none"
         d="M 562.5,0 H 4125 V 3000 H 562.5 Z" /><path
         id="path16"
         style="fill:#3043a1;fill-opacity:1;fill-rule:nonzero;stroke:none"
         d="m 0,2250 h 4125 v 468.75 H 0 Z" /><path
         id="path18"
         style="fill:#3043a1;fill-opacity:1;fill-rule:nonzero;stroke:none"
         d="M 0,281.25 H 4125 V 750 H 0 Z" /><path
         id="path20"
         style="fill:#ffffff;fill-opacity:1;fill-rule:nonzero;stroke:none"
         d="m 2062.5,1041.09 -107.23,185.71 h 214.46 L 2062.5,1041.09 m -290.2,502.66 -107.22,185.7 h 214.41 l -107.19,-185.7 m 580.4,0 -107.19,185.7 h 214.41 l -107.22,-185.7" /><path
         id="path22"
         style="fill:#3043a1;fill-opacity:1;fill-rule:nonzero;stroke:none"
         d="m 2062.5,953.59 37.89,-21.871 511.06,885.231 H 1513.52 l 548.98,-950.86 37.89,65.629 -37.89,21.871 37.89,21.879 -435.31,753.981 h 794.84 l -435.31,-753.981 37.89,-21.879 37.89,21.879 -37.89,-21.879" /><path
         id="path24"
         style="fill:#ffffff;fill-opacity:1;fill-rule:nonzero;stroke:none"
         d="m 2535.7,1226.8 h -264.96 l 132.46,229.45 132.5,-229.45 m -681.44,0 H 1589.3 l 132.5,229.45 132.46,-229.45 m 340.7,590.15 h -264.92 l 132.46,229.46 132.46,-229.46" /><path
         id="path26"
         style="fill:#ffffff;fill-opacity:1;fill-rule:nonzero;stroke:none"
         d="m 2169.73,1226.8 h -214.46 l -182.97,316.95 107.19,185.7 h 366.02 l 107.19,-185.7 -182.97,-316.95" /><path
         id="path28"
         style="fill:#3043a1;fill-opacity:1;fill-rule:nonzero;stroke:none"
         d="m 2270.74,1226.8 h -101.01 l 182.97,316.95 50.5,-87.5 -132.46,-229.45 m -315.47,0 h -101.01 l -132.46,229.45 50.5,87.5 182.97,-316.95 m 290.24,502.65 h -366.02 l 50.55,87.5 h 264.92 l 50.55,-87.5" /><path
         id="path30"
         style="fill:#3043a1;fill-opacity:1;fill-rule:nonzero;stroke:none"
         d="m 2062.5,2046.41 -37.89,21.87 -511.09,-885.23 h 1097.93 l -548.95,950.86 -37.89,-65.63 37.89,-21.87 -37.89,-21.88 435.31,-753.98 h -794.84 l 435.31,753.98 -37.89,21.88 -37.89,-21.88 37.89,21.88" /></g></g></svg>