<?xml version="1.0" encoding="UTF-8" standalone="no"?>
<svg
   xmlns:dc="http://purl.org/dc/elements/1.1/"
   xmlns:cc="http://creativecommons.org/ns#"
   xmlns:rdf="http://www.w3.org/1999/02/22-rdf-syntax-ns#"
   xmlns:svg="http://www.w3.org/2000/svg"
   xmlns="http://www.w3.org/2000/svg"
   viewBox="0 0 400 400"
   height="400"
   width="400"
   xml:space="preserve"
   id="svg2"
   version="1.1"><metadata
     id="metadata8"><rdf:RDF><cc:Work
         rdf:about=""><dc:format>image/svg+xml</dc:format><dc:type
           rdf:resource="http://purl.org/dc/dcmitype/StillImage" /></cc:Work></rdf:RDF></metadata><defs
     id="defs6" /><g
     transform="matrix(1.3333333,0,0,-1.3333333,0,400)"
     id="g10"><g
       transform="scale(0.1)"
       id="g12"><path
         id="path14"
         style="fill:#ed1d24;fill-opacity:1;fill-rule:nonzero;stroke:none"
         d="M 1050,0 H 3750 V 3000 H 1050 Z" /><path
         id="path16"
         style="fill:#23632f;fill-opacity:1;fill-rule:nonzero;stroke:none"
         d="M 0,0 H 1050 V 3000 H 0 Z" /><path
         id="path18"
         style="fill:#efee0e;fill-opacity:1;fill-rule:evenodd;stroke:none"
         d="m 1636.82,1034.69 c -226.58,6.85 -1265.55,655.37 -1272.699,758.64 l 57.395,95.65 C 524.563,1739.25 1586.68,1108.55 1691.02,1130.9 l -54.24,-96.17" /><path
         id="path20"
         style="fill:#efee0e;fill-opacity:1;fill-rule:evenodd;stroke:none"
         d="m 1642.13,1031.77 c -3.85,-6.97 -11.03,-7.22 -24.61,-5.73 -84.79,9.42 -341.93,134.45 -646.219,316.64 -354.082,211.96 -646.543,405.06 -614.758,455.56 l 8.645,15.27 1.687,-0.54 C 338.34,1727.46 943.977,1381.16 979.648,1359.04 1330.08,1141.96 1625.5,1015.18 1651.65,1048.13 l -9.52,-16.36 M 409.426,1901.99 c -20.324,-54.68 271.14,-234.89 621.784,-448.13 350.65,-213.28 652.96,-345.05 675.37,-326.15 1.4,2.42 11.03,19.04 10.14,18.9 -4.21,-6.34 -14.43,-8.32 -30.35,-3.7 -94.75,27.31 -341.83,140.69 -647.83,326.29 -305.974,185.57 -572.212,356.54 -613.591,429.24 -2.859,5.02 -4.898,14.21 -4.5,21.35 h -1.035 l -8.777,-15.38 -1.211,-2.42" /><path
         id="path22"
         style="fill:none;stroke:#231f20;stroke-width:4.2969799;stroke-linecap:round;stroke-linejoin:round;stroke-miterlimit:4;stroke-dasharray:none;stroke-opacity:1"
         d="m 1642.13,1031.69 c -3.85,-6.95 -11.03,-7.18 -24.61,-5.71 -84.75,9.4 -341.93,134.43 -646.219,316.63 -354.082,211.91 -646.504,405.06 -614.797,455.52 l 8.641,15.28 1.73,-0.56 c -28.535,-85.51 577.102,-431.82 612.734,-453.88 350.431,-217.12 645.861,-343.91 672.001,-310.95 l -9.48,-16.37 z m -1232.704,870.3 c -20.324,-54.68 271.101,-234.89 621.784,-448.13 350.62,-213.28 652.96,-345.05 675.37,-326.15 1.4,2.42 11.03,19.04 10.14,18.9 -4.17,-6.3 -14.43,-8.32 -30.35,-3.7 -94.75,27.31 -341.83,140.73 -647.83,326.29 -305.974,185.57 -572.212,356.58 -613.591,429.24 -2.859,5.02 -4.898,14.21 -4.5,21.35 l -0.996,0.03 -8.816,-15.41 z" /><path
         id="path24"
         style="fill:#efee0e;fill-opacity:1;fill-rule:evenodd;stroke:none"
         d="m 1051.29,1730.78 c 226.75,1.81 506.61,30.99 667.67,95.19 l -34.72,56.35 c -95.18,-52.69 -376.57,-87.34 -634.89,-92.51 -305.502,2.83 -521.166,31.24 -629.233,103.75 l -32.746,-60.02 c 198.645,-84.04 402.18,-101.91 663.919,-102.76" /><path
         id="path26"
         style="fill:#efee0e;fill-opacity:1;fill-rule:evenodd;stroke:none"
         d="m 1697.83,1881.85 c -17.18,-13.8 -102.87,-44.2 -253.64,-68.27 -100.61,-14.42 -228.56,-27.35 -391.99,-27.5 -155.274,-0.14 -282.134,10.33 -378.626,24.39 -153.113,19.96 -234.597,56.03 -264.004,66.58 2.93,5.06 5.891,10.07 8.977,15.09 22.848,-11.5 101.512,-43.44 256.707,-65.4 95.398,-13.52 222.441,-23.62 376.946,-23.44 162.67,0.14 289.16,13.29 389.13,27.65 151.54,20.83 233.06,59.58 245.48,69.31 l 11.02,-18.41 m 30.47,-57.16 c -5.53,-8.87 -110.56,-45.09 -265.28,-71.82 -104.93,-16 -241.78,-29.66 -412.54,-29.81 -162.277,-0.19 -294.804,11.39 -395.148,24.98 -162.41,25.49 -246.23,60.9 -277.258,73.42 2.973,5.89 4.875,10.03 7.727,15.52 89.211,-35.52 173.437,-56.94 272.097,-72.14 99.692,-13.47 230.637,-25.19 392.062,-25.05 170,0.19 305.34,14.87 409.64,30.4 158.64,25.6 245.33,58.55 257.49,73.82 l 11.21,-19.32" /><path
         id="path28"
         style="fill:none;stroke:#231f20;stroke-width:4.29869986;stroke-linecap:round;stroke-linejoin:round;stroke-miterlimit:4;stroke-dasharray:none;stroke-opacity:1"
         d="m 1697.86,1881.85 c -17.21,-13.8 -102.9,-44.2 -253.67,-68.27 -100.61,-14.42 -228.52,-27.35 -391.96,-27.5 -155.304,-0.14 -282.164,10.33 -378.656,24.35 -153.113,20 -234.597,56.07 -263.972,66.62 2.937,5.06 5.894,10.03 8.972,15.09 22.864,-11.5 101.485,-43.44 256.68,-65.4 95.398,-13.56 222.48,-23.62 376.976,-23.48 162.67,0.18 289.13,13.33 389.1,27.69 151.54,20.83 233.09,59.58 245.48,69.27 z m 30.44,-57.16 c -5.53,-8.87 -110.56,-45.09 -265.28,-71.82 -104.93,-16 -241.78,-29.66 -412.54,-29.85 -162.277,-0.15 -294.804,11.39 -395.148,25.02 -162.41,25.45 -246.23,60.9 -277.219,73.42 2.961,5.89 4.875,10 7.727,15.52 89.211,-35.52 173.437,-56.94 272.098,-72.14 99.679,-13.47 230.597,-25.19 392.062,-25.05 169.96,0.19 305.3,14.87 409.6,30.4 158.68,25.6 245.33,58.52 257.53,73.82 l 11.2,-19.32 z" /><path
         id="path30"
         style="fill:#efee0e;fill-opacity:1;fill-rule:evenodd;stroke:none"
         d="m 306.594,1457.56 c 139.492,-75.04 449.304,-112.83 742.446,-115.43 266.94,-0.44 614.69,41.24 744.74,110.16 l -3.56,75.1 c -40.69,-63.57 -413.38,-124.58 -744.07,-122.1 -330.689,2.49 -637.783,53.59 -740.142,119.72 l 0.586,-67.45" /><path
         id="path32"
         style="fill:#efee0e;fill-opacity:1;fill-rule:evenodd;stroke:none"
         d="m 1800.99,1532.04 v -17.9 c -19.55,-23.37 -142.09,-58.71 -295.78,-83.57 -116.98,-17.94 -269.47,-31.47 -459.46,-31.47 -180.508,0 -324.461,12.86 -436.121,30.03 -176.438,25.68 -289.348,70.68 -312.012,84.12 l 0.117,20.88 c 68.079,-45.26 252.461,-78.37 314.383,-88.48 110.891,-17.02 254.004,-29.81 433.633,-29.81 189.11,0 340.72,13.45 456.96,31.28 110.27,15.94 267.34,57.35 298.28,84.92 m -0.07,-63.68 v -17.94 c -19.55,-23.33 -142.1,-58.67 -295.79,-83.54 -116.98,-17.93 -269.46,-31.46 -459.46,-31.46 -180.533,0 -324.447,12.85 -436.107,30 -176.45,25.71 -289.348,70.71 -312.024,84.11 l 0.117,20.88 c 68.074,-45.22 252.473,-78.34 314.395,-88.44 110.879,-17.07 254.004,-29.81 433.619,-29.81 189.12,0 340.78,13.44 456.97,31.24 110.26,15.94 267.33,57.35 298.28,84.92 v 0.04" /><path
         id="path34"
         style="fill:none;stroke:#231f20;stroke-width:4.29615021;stroke-linecap:round;stroke-linejoin:round;stroke-miterlimit:4;stroke-dasharray:none;stroke-opacity:1"
         d="m 1800.99,1532.04 v -17.9 c -19.55,-23.37 -142.09,-58.67 -295.78,-83.53 -116.98,-17.94 -269.47,-31.47 -459.46,-31.47 -180.547,0 -324.488,12.85 -436.121,29.99 -176.477,25.68 -289.348,70.68 -312.012,84.12 l 0.117,20.88 c 68.036,-45.23 252.461,-78.33 314.383,-88.44 110.891,-17.06 254.004,-29.85 433.593,-29.85 189.15,0 340.76,13.45 457,31.28 110.27,15.94 267.34,57.35 298.25,84.92 z m -0.07,-63.68 v -17.91 c -19.55,-23.36 -142.1,-58.7 -295.79,-83.57 -116.98,-17.93 -269.46,-31.46 -459.46,-31.46 -180.533,0 -324.486,12.85 -436.107,30 -176.489,25.71 -289.348,70.71 -312.024,84.15 l 0.117,20.88 c 68.047,-45.26 252.473,-78.38 314.395,-88.48 110.879,-17.03 254.004,-29.81 433.589,-29.81 189.15,0 340.77,13.44 457,31.24 110.26,15.94 267.33,57.35 298.24,84.92 h 0.04 z" /><path
         id="path36"
         style="fill:#efee0e;fill-opacity:1;fill-rule:evenodd;stroke:none"
         d="m 1048.43,1047.58 c -320.813,1.94 -595.649,87.45 -653.696,101.59 l 42.297,-66.24 c 102.547,-43.14 370.684,-107.41 614.469,-100.282 243.78,7.114 456.81,25.972 606.96,99.072 l 43.4,68.66 c -102.33,-48.2 -450.51,-102.28 -653.43,-102.8" /><path
         id="path38"
         style="fill:#efee0e;fill-opacity:1;fill-rule:evenodd;stroke:none"
         d="m 1712.36,1159.17 c 0.19,-0.19 0.34,-0.37 0.52,-0.59 -4.8,-8.01 -9.71,-16.22 -14.72,-24.46 -37.8,-13.51 -140.3,-43.5 -289.97,-64.41 -98.62,-13.45 -159.89,-26.45 -356.06,-30.26 -367.65,9.34 -605.646,81.22 -662.189,98.96 l -8.386,16.07 c 213.062,-55.62 430.672,-94.45 670.575,-98.41 179.47,3.82 255.83,17.04 353.6,30.38 174.54,27.12 262.46,55.87 288.88,64.15 -0.33,0.47 -0.73,0.99 -1.13,1.5 l 18.88,7.07 m -37.6,-62.08 c -6.37,-9.74 -12.89,-19.33 -19.49,-28.7 -70.82,-24.98 -182.41,-51.16 -229.46,-58.82 -96.17,-19.851 -245,-34.449 -377.06,-34.531 -284.172,4.133 -516.797,59.801 -626.223,107.251 l -8.816,15.17 1.426,2.28 14.98,-5.79 c 194.602,-69.61 413.196,-97.38 620.213,-102.399 131.54,-0.481 263.22,15.089 369.69,34.129 163.29,32.71 229.33,57.35 249.57,68.56 l 5.17,2.89 v -0.04" /><path
         id="path40"
         style="fill:none;stroke:#231f20;stroke-width:4.12387991;stroke-linecap:round;stroke-linejoin:round;stroke-miterlimit:4;stroke-dasharray:none;stroke-opacity:1"
         d="m 1712.36,1159.17 c 0.19,-0.19 0.34,-0.37 0.52,-0.59 -4.76,-8.05 -9.71,-16.22 -14.72,-24.46 -37.76,-13.51 -140.26,-43.5 -289.93,-64.41 -98.63,-13.45 -159.93,-26.45 -356.1,-30.26 -367.61,9.34 -605.646,81.22 -662.189,98.96 l -8.386,16.07 c 213.062,-55.62 430.672,-94.45 670.575,-98.41 179.47,3.82 255.83,17.04 353.64,30.38 174.53,27.12 262.46,55.87 288.88,64.15 -0.33,0.47 -0.73,0.99 -1.17,1.5 l 18.92,7.07 z m -37.6,-62.08 c -6.37,-9.74 -12.89,-19.37 -19.49,-28.7 -70.82,-24.98 -182.37,-51.2 -229.46,-58.85 -96.21,-19.821 -245,-34.419 -377.06,-34.501 -284.172,4.133 -516.797,59.761 -626.223,107.221 l -8.816,15.2 1.426,2.28 14.98,-5.82 c 194.602,-69.62 413.196,-97.389 620.213,-102.369 131.54,-0.481 263.22,15.049 369.69,34.089 163.29,32.75 229.33,57.39 249.57,68.56 z" /><path
         id="path42"
         style="fill:#efee0e;fill-opacity:1;fill-rule:evenodd;stroke:none"
         d="m 1047.32,2239.38 c 408.67,0 744.73,-332.55 744.73,-740.3 0,-407.73 -336.06,-740.26 -744.73,-740.26 -408.609,0 -741.937,332.53 -741.937,740.26 0,407.75 333.328,740.3 741.937,740.3 m 668.89,-722.57 C 1717.28,1305.76 1609.28,1116.4 1522.3,1032.86 1399.22,914.68 1236.07,838.66 1045.53,835.148 832.766,831.219 632.117,969.949 578.32,1030.89 473.105,1150.01 387.449,1301.3 384.707,1505.21 c 13.035,230.3 103.445,390.74 234.481,500.75 131.066,110.05 305.609,163.62 450.922,159.78 167.68,-4.44 363.57,-86.69 498.91,-249.98 88.67,-107 127.08,-223.13 147.19,-398.95 v 0" /><path
         id="path44"
         style="fill:none;stroke:#231f20;stroke-width:4.29615021;stroke-linecap:round;stroke-linejoin:round;stroke-miterlimit:4;stroke-dasharray:none;stroke-opacity:1"
         d="m 1049.92,2163.84 c 364.02,0 663.88,-298.8 663.88,-663.95 0,-365.11 -299.86,-663.902 -663.88,-663.902 -364.014,0 -663.857,298.792 -663.857,663.902 0,365.15 299.843,663.95 663.857,663.95 z m 0,16.33 c 372.99,0 680.21,-306.16 680.21,-680.28 0,-374.12 -307.22,-680.269 -680.21,-680.269 -372.979,0 -680.193,306.149 -680.193,680.269 0,374.12 307.214,680.28 680.193,680.28 z m -0.57,45.41 c 398.21,0 726.23,-326.89 726.23,-726.35 0,-399.45 -328.02,-726.308 -726.23,-726.308 -398.229,0 -726.276,326.858 -726.276,726.308 0,399.46 328.047,726.35 726.276,726.35 z m 0,16.33 c 408.98,0 742.56,-333.62 742.56,-742.68 0,-409.02 -333.58,-742.64 -742.56,-742.64 -409.03,0 -742.612,333.62 -742.612,742.64 0,409.06 333.582,742.68 742.612,742.68 z" /><path
         id="path46"
         style="fill:#efee0e;fill-opacity:1;fill-rule:evenodd;stroke:none"
         d="m 1073.4,2253.52 v -8.21 h -46.88 v 7.99 h -16.18 V 744.141 h 16.18 v 7.031 h 47.1 v -7.281 h 16.18 l -0.21,1509.629 h -16.19" /><path
         id="path48"
         style="fill:none;stroke:#231f20;stroke-width:4.29615021;stroke-linecap:round;stroke-linejoin:round;stroke-miterlimit:4;stroke-dasharray:none;stroke-opacity:1"
         d="m 1027.73,752.711 h 45.35 m -45.42,1492.199 h 45.12" /><path
         id="path50"
         style="fill:none;stroke:#231f20;stroke-width:4.2972002;stroke-linecap:round;stroke-linejoin:round;stroke-miterlimit:4;stroke-dasharray:none;stroke-opacity:1"
         d="m 1010.3,2253.4 h 16.34 l 0.04,-1509.369 h -16.34 V 2253.4 Z m 63.18,0 h 16.18 l 0.14,-1509.369 h -16.22 z" /><path
         id="path52"
         style="fill:#efee0e;fill-opacity:1;fill-rule:evenodd;stroke:none"
         d="m 304.07,1530.91 c 93.078,85.72 436.66,141.32 741.54,139.85 304.83,-1.42 665.85,-64.04 744.36,-138.03 l 0.8,-63.93 c -65.77,61.85 -346.25,135.64 -744.58,136.45 -398.331,0.83 -687.518,-74.97 -742.159,-138.14 l 0.039,63.8" /><path
         id="path54"
         style="fill:none;stroke:#231f20;stroke-width:4.29323006;stroke-linecap:round;stroke-linejoin:round;stroke-miterlimit:4;stroke-dasharray:none;stroke-opacity:1"
         d="m 1792.41,1525.63 v -55.14 m -1488.531,57.42 v -55.2" /><path
         id="path56"
         style="fill:#efee0e;fill-opacity:1;fill-rule:evenodd;stroke:none"
         d="m 1049.71,1677.91 c 175.38,0.33 345.51,-16.63 480.47,-42.89 139.26,-27.86 237.3,-62.7 270.78,-101.81 l -0.04,-19.33 c -40.4,48.67 -172.27,84.34 -273.85,104.73 -133.96,26.09 -302.98,42.89 -477.36,42.55 -184.058,-0.32 -354.605,-17.75 -486.597,-43.49 -102.168,-19.38 -249.199,-62.78 -265.574,-103.94 v 20.15 c 9.68,28.19 116.973,72.32 262.402,100.63 132.969,25.93 304.649,43.06 489.769,43.4 m -0.07,-63.68 c 175.37,0.32 345.51,-16.63 480.47,-42.89 139.26,-27.86 237.29,-62.7 270.77,-101.81 l -0.04,-19.33 c -40.39,48.63 -172.3,84.34 -273.89,104.73 -133.92,26.08 -302.93,42.89 -477.31,42.55 -184.066,-0.32 -355.41,-17.79 -487.394,-43.5 -105.906,-21.02 -247.156,-62.8 -264.773,-103.97 v 20.18 c 9.675,28.49 114.84,71.12 262.39,100.64 132.93,25.92 304.649,43.03 489.777,43.4 v 0" /><path
         id="path58"
         style="fill:none;stroke:#231f20;stroke-width:4.29615021;stroke-linecap:round;stroke-linejoin:round;stroke-miterlimit:4;stroke-dasharray:none;stroke-opacity:1"
         d="m 1049.71,1677.91 c 175.38,0.33 345.51,-16.63 480.47,-42.89 139.26,-27.86 237.3,-62.66 270.81,-101.77 l -0.03,-19.37 c -40.44,48.67 -172.31,84.34 -273.89,104.73 -133.96,26.09 -302.98,42.89 -477.36,42.55 -184.058,-0.32 -354.573,-17.75 -486.597,-43.49 -102.168,-19.38 -249.168,-62.78 -265.574,-103.97 v 20.18 c 9.68,28.19 116.973,72.32 262.402,100.63 132.969,25.93 304.649,43.06 489.769,43.4 z m -0.07,-63.68 c 175.37,0.32 345.51,-16.63 480.47,-42.89 139.26,-27.83 237.29,-62.66 270.81,-101.81 l -0.04,-19.33 c -40.43,48.67 -172.31,84.34 -273.89,104.73 -133.96,26.08 -302.97,42.89 -477.35,42.55 -184.066,-0.32 -355.41,-17.75 -487.394,-43.5 -105.906,-21.02 -247.129,-62.77 -264.773,-103.93 v 20.14 c 9.707,28.53 114.84,71.12 262.39,100.64 132.969,25.92 304.649,43.06 489.777,43.4 z" /><path
         id="path60"
         style="fill:#efee0e;fill-opacity:1;fill-rule:evenodd;stroke:none"
         d="m 1046.12,2002.81 c 276.34,1.39 517.42,-38.63 627.68,-95.14 l 40.25,-69.58 c -95.88,51.63 -355.92,105.36 -667.53,97.33 -253.93,-1.57 -525.219,-27.97 -661.332,-100.6 l 48.042,80.32 c 111.692,57.94 375.149,87.34 612.89,87.63" /><path
         id="path62"
         style="fill:none;stroke:#231f20;stroke-width:4.3056798;stroke-linecap:round;stroke-linejoin:round;stroke-miterlimit:4;stroke-dasharray:none;stroke-opacity:1"
         d="m 1680.83,1896.39 27.36,-43.99" /><path
         id="path64"
         style="fill:#efee0e;fill-opacity:1;fill-rule:evenodd;stroke:none"
         d="m 1049.71,2008.96 c 150.85,0.4 299.77,-7.98 415.91,-28.85 91.55,-17.83 182.11,-45.68 215.25,-70.43 l 17.43,-27.73 c -29.63,32.97 -141.24,64.2 -239.79,81.71 -115.21,19.85 -257.95,27.72 -408.8,28.97 -158.315,-0.4 -304.612,-10.11 -418.147,-30.79 -108.321,-20.63 -178.196,-45.01 -207.786,-64.06 l 15.344,23.14 c 40.789,21.49 106.758,41.2 189.774,57.35 114.367,20.8 261.585,30.28 420.815,30.69 m 0.08,-63.61 c 157.6,0.44 309.92,-8.46 431.06,-30.32 112.82,-20.99 220.38,-52.52 235.76,-69.47 l 11.94,-21.06 c -37.42,24.43 -130.51,51.59 -250.04,74.27 -120.09,22.55 -272.29,30.03 -429.03,29.62 -177.898,0.63 -316.14,-8.74 -434.761,-29.43 C 489.258,1875.48 402.207,1841.93 380.742,1826 l 11.692,22.26 c 41.714,21.28 107.918,46.95 219.168,66.98 122.683,22.43 262.363,29.15 438.188,30.11 v 0" /><path
         id="path66"
         style="fill:none;stroke:#231f20;stroke-width:4.29869986;stroke-linecap:round;stroke-linejoin:round;stroke-miterlimit:4;stroke-dasharray:none;stroke-opacity:1"
         d="m 1049.71,2008.99 c 150.85,0.37 299.77,-8.01 415.91,-28.88 91.55,-17.83 182.11,-45.68 215.25,-70.43 l 17.43,-27.73 c -29.63,32.97 -141.24,64.2 -239.79,81.71 -115.21,19.88 -257.95,27.72 -408.8,29.01 -158.315,-0.44 -304.612,-10.15 -418.147,-30.83 -108.321,-20.63 -178.196,-45.01 -207.786,-64.06 l 15.344,23.14 c 40.828,21.49 106.758,41.2 189.774,57.35 114.367,20.83 261.585,30.28 420.815,30.72 z m 0.08,-63.64 c 157.6,0.4 309.92,-8.46 431.06,-30.32 112.78,-20.99 220.38,-52.52 235.76,-69.47 l 11.94,-21.07 c -37.42,24.44 -130.51,51.64 -250.04,74.31 -120.05,22.56 -272.25,30.03 -429.03,29.63 -177.898,0.59 -316.101,-8.78 -434.761,-29.47 C 489.258,1875.48 402.207,1841.93 380.742,1826 l 11.692,22.26 c 41.746,21.32 107.918,46.95 219.168,66.98 122.683,22.43 262.402,29.15 438.188,30.11 z" /><path
         id="path68"
         style="fill:#efee0e;fill-opacity:1;fill-rule:evenodd;stroke:none"
         d="m 1418.62,1190.55 c -136.63,25.49 -273.51,29.23 -369.14,28.09 -460.542,-5.42 -609.292,-94.56 -627.46,-121.58 l -34.422,56.1 c 117.265,84.99 368.047,132.68 664.382,127.82 153.88,-2.54 286.7,-12.76 398.4,-34.4 l -31.76,-56.03" /><path
         id="path70"
         style="fill:none;stroke:#231f20;stroke-width:4.29615021;stroke-linecap:round;stroke-linejoin:round;stroke-miterlimit:4;stroke-dasharray:none;stroke-opacity:1"
         d="m 395.254,1145.4 22.59,-38.9" /><path
         id="path72"
         style="fill:#efee0e;fill-opacity:1;fill-rule:evenodd;stroke:none"
         d="m 1052.68,1291.04 c 132.7,-2.5 269.78,-8.65 403.04,-35.04 l -9.15,-16.16 c -120.3,23.88 -235.29,31.86 -393.13,34.28 -170.502,-0.29 -351.377,-12.45 -515.803,-60.27 -53.094,-15.46 -144.727,-48.89 -147.801,-75.37 l -8.762,15.48 c 2.012,24.07 81.336,55.41 152.715,76.18 165.703,48.19 347.063,60.57 518.891,60.9 m -5.83,-64.49 c 128.1,-1.9 253.85,-7.21 375.25,-29.85 l -8.78,-15.53 c -112.75,20.84 -232.91,28.79 -366.03,28.17 -169.954,1.32 -341.899,-14.58 -491.567,-57.53 -47.246,-13.11 -125.391,-43.51 -133.368,-68.6 l -8.761,14.44 c 2.539,14.82 49.773,45.58 138.105,70.42 171.426,49.11 331.778,57.38 495.151,58.48 v 0" /><path
         id="path74"
         style="fill:none;stroke:#231f20;stroke-width:4.12387991;stroke-linecap:round;stroke-linejoin:round;stroke-miterlimit:4;stroke-dasharray:none;stroke-opacity:1"
         d="m 1052.68,1291.04 c 132.7,-2.5 269.78,-8.65 403.04,-35.04 l -9.15,-16.16 c -120.34,23.92 -235.29,31.86 -393.13,34.28 -170.502,-0.29 -351.377,-12.45 -515.842,-60.27 -53.055,-15.46 -144.727,-48.89 -147.762,-75.37 l -8.762,15.48 c 2.012,24.07 81.336,55.41 152.715,76.18 165.703,48.19 347.063,60.57 518.891,60.9 z m -5.83,-64.49 c 128.1,-1.9 253.85,-7.21 375.25,-29.85 l -8.78,-15.53 c -112.75,20.84 -232.91,28.79 -366.03,28.13 -169.993,1.36 -341.899,-14.54 -491.567,-57.49 -47.246,-13.15 -125.391,-43.51 -133.368,-68.6 l -8.761,14.44 c 2.539,14.82 49.773,45.58 138.105,70.42 171.453,49.11 331.778,57.38 495.151,58.48 z" /><path
         id="path76"
         style="fill:#efee0e;fill-opacity:1;fill-rule:evenodd;stroke:none"
         d="m 426.746,1916.09 c 228.149,2.96 1281.804,-643.87 1284.884,-762.97 l -65.26,-100.04 c -29.48,138.28 -1098.589,767.76 -1275.003,755.86 l 55.344,107.15" /><path
         id="path78"
         style="fill:none;stroke:#231f20;stroke-width:4.29734993;stroke-linecap:round;stroke-linejoin:round;stroke-miterlimit:4;stroke-dasharray:none;stroke-opacity:1"
         d="m 425.027,1910.49 -51.453,-95.4 m 1333.266,-670.42 -55.34,-85.88" /><path
         id="path80"
         style="fill:#efee0e;fill-opacity:1;fill-rule:evenodd;stroke:none"
         d="m 1718.18,1145.8 c 26.78,52.88 -261.87,270.34 -619.73,482.05 -366.106,207.49 -629.954,329.62 -678.145,293.21 l -10.735,-19.47 c -0.066,-1.1 0.403,1.32 2.637,3.07 8.789,7.65 23.289,7.15 29.844,7.25 83.027,-1.24 320.027,-110.3 652.559,-300.94 145.71,-84.9 615.52,-386.21 613.73,-470.92 0.14,-7.29 0.62,-8.79 -2.13,-12.37 l 11.94,18.16 m -1353.255,666.9 c 42.332,28.72 353.543,-109.89 679.125,-306.23 324.77,-196.91 635.09,-419.41 607.07,-461.05 l -9.18,-14.5 -4.24,-3.34 c 0.9,0.67 5.55,6.34 -0.45,21.79 -13.84,45.52 -233.97,221.2 -599.23,441.73 -356.076,212.33 -652.802,340.29 -682.47,303.69 l 9.375,17.91 h -0.04 0.04" /><path
         id="path82"
         style="fill:none;stroke:#231f20;stroke-width:4.29750013;stroke-linecap:round;stroke-linejoin:round;stroke-miterlimit:4;stroke-dasharray:none;stroke-opacity:1"
         d="m 1718.18,1145.88 c 26.78,52.87 -261.87,270.33 -619.73,482.04 -366.106,207.49 -629.954,329.63 -678.145,293.22 l -10.735,-19.52 c -0.066,-1.05 0.403,1.36 2.676,3.08 8.75,7.65 23.289,7.15 29.844,7.24 82.988,-1.23 319.988,-110.29 652.52,-300.94 145.71,-84.86 615.56,-386.18 613.77,-470.91 0.1,-7.29 0.58,-8.79 -2.17,-12.41 z M 364.895,1812.81 c 42.332,28.72 353.543,-109.89 679.125,-306.26 324.77,-196.87 635.09,-419.38 607.07,-461.02 l -9.18,-14.49 -4.24,-3.34 c 0.9,0.65 5.55,6.37 -0.45,21.78 -13.84,45.53 -233.97,221.19 -599.23,441.73 -356.076,212.3 -652.802,340.28 -682.47,303.7 l 9.375,17.9 h -0.04 z" /><path
         id="path84"
         style="fill:#ffffff;fill-opacity:1;fill-rule:evenodd;stroke:none"
         d="m 604.504,1417.41 c 0,-122.01 49.961,-232.39 130.918,-313.06 81.121,-80.82 191.348,-131.838 313.588,-131.838 122.87,0 234.34,49.918 315.13,130.408 80.74,80.53 130.81,191.64 130.84,314.09 h -0.03 v 593.93 l -890.555,1.06 0.109,-594.59" /><path
         id="path86"
         style="fill:none;stroke:#231f20;stroke-width:5.02778006;stroke-linecap:butt;stroke-linejoin:miter;stroke-miterlimit:4;stroke-dasharray:none;stroke-opacity:1"
         d="m 604.504,1417.41 c 0,-122.01 49.961,-232.39 130.918,-313.06 81.121,-80.82 191.348,-131.838 313.588,-131.838 122.83,0 234.34,49.918 315.09,130.408 80.78,80.53 130.85,191.67 130.85,314.13 v 593.89 l -890.555,1.05 z" /><path
         id="path88"
         style="fill:#ed1d24;fill-opacity:1;fill-rule:evenodd;stroke:none"
         d="m 1303.78,1819.71 0.04,-366.66 -0.29,-38.81 c 0,-10.22 -0.62,-21.84 -1.79,-31.76 -6.96,-57.97 -33.62,-108.47 -73.1,-147.8 -46.22,-46.04 -110.06,-74.56 -180.37,-74.56 -69.942,0 -132.262,29.55 -178.7,75.77 -47.605,47.39 -75.222,112.35 -75.222,179.59 l -0.11,405.17 509.582,-0.91 M 621.172,1416.61 v -0.37 c 0,-116.67 48.301,-222.91 125.793,-300.03 77.676,-77.31 184.598,-125.358 301.605,-125.358 117.59,0 224.34,47.718 301.64,124.698 77.35,76.98 125.26,183.25 125.26,300.33 v 576.2 l -853.822,0.15 -0.515,-575.62" /><path
         id="path90"
         style="fill:none;stroke:#231f20;stroke-width:3.8050499;stroke-linecap:butt;stroke-linejoin:miter;stroke-miterlimit:4;stroke-dasharray:none;stroke-opacity:1"
         d="m 1303.78,1819.71 0.04,-366.69 -0.29,-38.78 c 0,-10.22 -0.62,-21.84 -1.79,-31.76 -6.96,-57.97 -33.62,-108.51 -73.1,-147.8 -46.22,-46.04 -110.06,-74.56 -180.37,-74.56 -69.942,0 -132.262,29.52 -178.7,75.73 -47.644,47.43 -75.222,112.42 -75.222,179.63 l -0.11,405.17 509.542,-0.91 0.04,-0.03 z m -682.608,-403.1 v -0.37 c 0,-116.67 48.301,-222.91 125.793,-300.03 77.676,-77.31 184.598,-125.358 301.605,-125.358 117.59,0 224.34,47.718 301.64,124.698 77.32,76.98 125.26,183.25 125.26,300.33 v 576.19 l -853.822,0.16 -0.515,-575.62" /><path
         id="path92"
         style="fill:#2a3c93;fill-opacity:1;fill-rule:nonzero;stroke:none"
         d="m 994.773,1481.94 v -0.04 c 0,-16.58 6.367,-31.7 16.597,-42.65 10.21,-10.99 24.31,-17.84 39.76,-17.84 15.49,0 29.55,6.77 39.77,17.73 10.18,10.95 16.52,26.07 16.52,42.7 v 80.79 l -112.459,0.07 -0.188,-80.76" /><path
         id="path94"
         style="fill:#2a3c93;fill-opacity:1;fill-rule:nonzero;stroke:none"
         d="m 994.23,1288.58 v -0.04 c 0,-16.58 6.37,-31.7 16.58,-42.69 10.23,-10.99 24.32,-17.8 39.78,-17.8 15.48,0 29.55,6.77 39.77,17.73 10.18,10.95 16.51,26.04 16.51,42.7 v 80.75 l -112.468,0.11 -0.172,-80.76" /><path
         id="path96"
         style="fill:#2a3c93;fill-opacity:1;fill-rule:nonzero;stroke:none"
         d="m 838.77,1481.58 v -0.04 c 0,-16.58 6.367,-31.72 16.582,-42.66 10.261,-11.02 24.367,-17.84 39.777,-17.84 15.496,0 29.598,6.78 39.773,17.73 10.188,10.96 16.516,26.03 16.516,42.69 v 80.77 l -112.434,0.09 -0.214,-80.74" /><path
         id="path98"
         style="fill:#2a3c93;fill-opacity:1;fill-rule:nonzero;stroke:none"
         d="m 1150.34,1481.65 v -0.04 c 0,-16.58 6.38,-31.71 16.59,-42.65 10.25,-11.03 24.35,-17.84 39.77,-17.84 15.53,0 29.59,6.78 39.77,17.73 10.18,10.94 16.52,26.03 16.52,42.69 v 80.75 l -112.42,0.11 -0.23,-80.75" /><path
         id="path100"
         style="fill:#2a3c93;fill-opacity:1;fill-rule:nonzero;stroke:none"
         d="m 994.734,1677.07 v -0.04 c 0,-16.59 6.376,-31.68 16.596,-42.66 10.21,-10.99 24.31,-17.84 39.72,-17.84 15.54,0 29.6,6.77 39.78,17.76 10.21,10.92 16.51,26.04 16.51,42.7 v 80.74 l -112.418,0.08 -0.188,-80.74" /><path
         id="path102"
         style="fill:#efee0e;fill-opacity:1;fill-rule:evenodd;stroke:none"
         d="m 761.602,1938.32 0.996,-26.11 h -30.95 l 0.879,26.07 h 29.075" /><path
         id="path104"
         style="fill:#efee0e;fill-opacity:1;fill-rule:evenodd;stroke:none"
         d="m 676.426,1841.79 c 1.023,41.37 30.398,51.19 30.617,51.34 0.184,0.14 31.719,-10.54 31.602,-51.75 l -62.219,0.41" /><path
         id="path106"
         style="fill:#efee0e;fill-opacity:1;fill-rule:evenodd;stroke:none"
         d="m 651.086,1892.39 -5.129,-47.6 31.055,-0.04 c 0.293,39.37 29.812,45.88 30.547,45.74 0.656,0.04 29.914,-8.67 30.683,-45.74 h 31.121 l -5.633,47.95 -112.644,-0.31" /><path
         id="path108"
         style="fill:none;stroke:#231f20;stroke-width:3.74519992;stroke-linecap:butt;stroke-linejoin:miter;stroke-miterlimit:4;stroke-dasharray:none;stroke-opacity:1"
         d="m 651.086,1892.32 -5.129,-47.57 31.055,-0.07 c 0.293,39.36 29.812,45.92 30.508,45.77 0.695,0.04 29.921,-8.71 30.722,-45.77 h 31.121 l -5.633,47.94 z" /><path
         id="path110"
         style="fill:#efee0e;fill-opacity:1;fill-rule:evenodd;stroke:none"
         d="m 643.879,1844.57 h 127.098 c 2.675,0 4.843,-2.68 4.843,-5.9 0,-3.22 -2.168,-5.86 -4.843,-5.86 H 643.879 c -2.68,0 -4.875,2.64 -4.875,5.86 0,3.22 2.195,5.9 4.875,5.9" /><path
         id="path112"
         style="fill:none;stroke:#231f20;stroke-width:3.74572992;stroke-linecap:butt;stroke-linejoin:miter;stroke-miterlimit:4;stroke-dasharray:none;stroke-opacity:1"
         d="m 643.879,1844.57 h 127.098 c 2.675,0 4.882,-2.68 4.882,-5.9 0,-3.22 -2.207,-5.86 -4.882,-5.86 H 643.879 c -2.68,0 -4.875,2.64 -4.875,5.86 0,3.22 2.195,5.9 4.875,5.9 z" /><path
         id="path114"
         style="fill:#efee0e;fill-opacity:1;fill-rule:evenodd;stroke:none"
         d="m 690.09,1844.79 c 0.105,24.83 16.953,31.86 17.027,31.86 0,0 17.578,-7.26 17.719,-31.86 H 690.09" /><path
         id="path116"
         style="fill:none;stroke:#231f20;stroke-width:3.72772002;stroke-linecap:butt;stroke-linejoin:miter;stroke-miterlimit:4;stroke-dasharray:none;stroke-opacity:1"
         d="m 690.09,1844.79 c 0.105,24.83 16.953,31.86 17.027,31.86 0,0 17.578,-7.26 17.719,-31.86 H 690.09" /><path
         id="path118"
         style="fill:#efee0e;fill-opacity:1;fill-rule:evenodd;stroke:none"
         d="m 646.582,1912.06 h 121.836 c 2.559,0 4.656,-2.38 4.656,-5.3 0,-2.9 -2.097,-5.29 -4.656,-5.29 H 646.582 c -2.566,0 -4.687,2.39 -4.687,5.29 0,2.92 2.121,5.3 4.687,5.3" /><path
         id="path120"
         style="fill:none;stroke:#231f20;stroke-width:3.74257994;stroke-linecap:butt;stroke-linejoin:miter;stroke-miterlimit:4;stroke-dasharray:none;stroke-opacity:1"
         d="m 646.582,1912.14 h 121.836 c 2.559,0 4.656,-2.38 4.656,-5.31 0,-2.89 -2.097,-5.28 -4.656,-5.28 H 646.582 c -2.566,0 -4.687,2.39 -4.687,5.28 0,2.93 2.121,5.31 4.687,5.31 z" /><path
         id="path122"
         style="fill:#efee0e;fill-opacity:1;fill-rule:evenodd;stroke:none"
         d="m 649.102,1901.47 h 116.574 c 2.461,0 4.461,-2.38 4.461,-5.26 0,-2.94 -2,-5.32 -4.461,-5.32 H 649.102 c -2.442,0 -4.422,2.38 -4.422,5.32 0,2.88 1.98,5.26 4.422,5.26" /><path
         id="path124"
         style="fill:none;stroke:#231f20;stroke-width:3.74257994;stroke-linecap:butt;stroke-linejoin:miter;stroke-miterlimit:4;stroke-dasharray:none;stroke-opacity:1"
         d="m 649.102,1901.47 h 116.574 c 2.461,0 4.461,-2.38 4.461,-5.26 0,-2.94 -2,-5.32 -4.461,-5.32 H 649.102 c -2.442,0 -4.422,2.38 -4.422,5.32 0,2.88 1.98,5.26 4.422,5.26 z" /><path
         id="path126"
         style="fill:#efee0e;fill-opacity:1;fill-rule:evenodd;stroke:none"
         d="m 687.234,1980.91 h 8.977 v -6.55 h 6.582 v 6.69 l 9.227,-0.02 v -6.67 h 6.593 v 6.69 l 9.239,-0.02 -0.039,-15.1 c 0,-2.35 -1.868,-3.88 -3.997,-3.88 h -32.41 c -2.16,0 -4.172,1.76 -4.172,3.96 v 14.9" /><path
         id="path128"
         style="fill:none;stroke:#231f20;stroke-width:3.75187993;stroke-linecap:butt;stroke-linejoin:miter;stroke-miterlimit:4;stroke-dasharray:none;stroke-opacity:1"
         d="m 686.797,1980.91 9.18,-0.04 v -6.51 h 6.711 v 6.67 h 9.414 v -6.67 h 6.738 v 6.67 h 9.453 l -0.039,-15.1 c 0,-2.35 -1.906,-3.88 -4.113,-3.88 h -33.067 c -2.226,0 -4.277,1.76 -4.277,3.96 l -0.039,14.9 z" /><path
         id="path130"
         style="fill:#efee0e;fill-opacity:1;fill-rule:evenodd;stroke:none"
         d="m 721.438,1960.73 2.046,-48.42 -32.261,0.15 2.168,48.38 28.047,-0.11" /><path
         id="path132"
         style="fill:none;stroke:#231f20;stroke-width:3.7423501;stroke-linecap:butt;stroke-linejoin:miter;stroke-miterlimit:4;stroke-dasharray:none;stroke-opacity:1"
         d="m 721.438,1960.73 2.046,-48.38 -32.261,0.11 2.168,48.38 28.047,-0.11" /><path
         id="path134"
         style="fill:#efee0e;fill-opacity:1;fill-rule:evenodd;stroke:none"
         d="m 726.816,1957.22 9.004,-0.04 v -6.53 h 6.563 v 6.67 l 9.226,-0.03 v -6.64 h 6.594 v 6.67 h 9.231 v -15.08 c 0,-2.39 -1.868,-3.92 -4.028,-3.92 h -32.371 c -2.207,0 -4.219,1.79 -4.219,3.96 v 14.9" /><path
         id="path136"
         style="fill:none;stroke:#231f20;stroke-width:3.75959992;stroke-linecap:butt;stroke-linejoin:miter;stroke-miterlimit:4;stroke-dasharray:none;stroke-opacity:1"
         d="m 761.602,1938.32 0.996,-26.11 h -30.95 l 0.879,26.07 h 29.075 z" /><path
         id="path138"
         style="fill:none;stroke:#231f20;stroke-width:3.75127006;stroke-linecap:butt;stroke-linejoin:miter;stroke-miterlimit:4;stroke-dasharray:none;stroke-opacity:1"
         d="m 726.816,1957.29 9.004,-0.04 v -6.52 h 6.563 v 6.66 l 9.226,-0.03 v -6.67 h 6.594 v 6.7 h 9.231 v -15.08 c 0,-2.34 -1.868,-3.88 -4.028,-3.88 h -32.371 c -2.168,0 -4.219,1.76 -4.219,3.92 z" /><path
         id="path140"
         style="fill:#efee0e;fill-opacity:1;fill-rule:evenodd;stroke:none"
         d="m 647.234,1957.22 9.016,-0.04 v -6.53 h 6.594 v 6.67 l 9.199,-0.03 v -6.64 h 6.59 v 6.67 h 9.219 v -15.08 c 0,-2.39 -1.868,-3.92 -4.036,-3.92 h -32.371 c -2.148,0 -4.172,1.79 -4.172,3.96 l -0.039,14.9" /><path
         id="path142"
         style="fill:none;stroke:#231f20;stroke-width:3.75127006;stroke-linecap:butt;stroke-linejoin:miter;stroke-miterlimit:4;stroke-dasharray:none;stroke-opacity:1"
         d="m 647.234,1957.22 9.016,-0.04 v -6.56 h 6.594 v 6.7 l 9.199,-0.03 v -6.67 h 6.59 v 6.7 h 9.219 v -15.08 c 0,-2.39 -1.868,-3.92 -4.036,-3.92 h -32.371 c -2.148,0 -4.172,1.79 -4.172,3.96 l -0.039,14.9 z" /><path
         id="path144"
         style="fill:#efee0e;fill-opacity:1;fill-rule:evenodd;stroke:none"
         d="m 682.07,1938.32 0.95,-26.11 h -30.942 l 0.871,26.07 h 29.121" /><path
         id="path146"
         style="fill:none;stroke:#231f20;stroke-width:3.75959992;stroke-linecap:butt;stroke-linejoin:miter;stroke-miterlimit:4;stroke-dasharray:none;stroke-opacity:1"
         d="m 682.07,1938.32 0.95,-26.11 h -30.903 l 0.832,26.07 h 29.121 -0.039 z" /><path
         id="path148"
         style="fill:#231f20;fill-opacity:1;fill-rule:evenodd;stroke:none"
         d="m 704.258,1945.43 c -0.215,4.69 6.555,4.76 6.484,0 v -11.54 h -6.484 v 11.54" /><path
         id="path150"
         style="fill:#231f20;fill-opacity:1;fill-rule:evenodd;stroke:none"
         d="m 744.063,1928.69 c 0,4.54 6.296,4.65 6.23,0 v -8.9 h -6.23 v 8.9" /><path
         id="path152"
         style="fill:#231f20;fill-opacity:1;fill-rule:evenodd;stroke:none"
         d="m 664.27,1928.69 c 0,4.54 6.296,4.65 6.191,0 v -8.9 h -6.191 v 8.9" /><path
         id="path154"
         style="fill:#efee0e;fill-opacity:1;fill-rule:evenodd;stroke:none"
         d="m 1104.46,1938.32 0.98,-26.11 h -30.95 l 0.89,26.07 h 29.08" /><path
         id="path156"
         style="fill:#efee0e;fill-opacity:1;fill-rule:evenodd;stroke:none"
         d="m 1019.28,1841.79 c 1.02,41.37 30.39,51.19 30.6,51.34 0.23,0.14 31.72,-10.54 31.64,-51.75 l -62.24,0.41" /><path
         id="path158"
         style="fill:#efee0e;fill-opacity:1;fill-rule:evenodd;stroke:none"
         d="m 993.938,1892.39 -5.129,-47.6 31.051,-0.04 c 0.29,39.37 29.81,45.88 30.54,45.74 0.65,0.04 29.92,-8.67 30.68,-45.74 h 31.15 l -5.65,47.95 -112.642,-0.31" /><path
         id="path160"
         style="fill:none;stroke:#231f20;stroke-width:3.74519992;stroke-linecap:butt;stroke-linejoin:miter;stroke-miterlimit:4;stroke-dasharray:none;stroke-opacity:1"
         d="m 993.938,1892.32 -5.129,-47.57 31.051,-0.07 c 0.29,39.36 29.81,45.92 30.54,45.77 0.65,0.04 29.92,-8.71 30.68,-45.77 h 31.15 l -5.65,47.94 z" /><path
         id="path162"
         style="fill:#efee0e;fill-opacity:1;fill-rule:evenodd;stroke:none"
         d="m 986.719,1844.57 h 127.121 c 2.66,0 4.86,-2.68 4.86,-5.9 0,-3.22 -2.2,-5.86 -4.86,-5.86 H 986.719 c -2.676,0 -4.871,2.64 -4.871,5.86 0,3.22 2.195,5.9 4.871,5.9" /><path
         id="path164"
         style="fill:none;stroke:#231f20;stroke-width:3.74572992;stroke-linecap:butt;stroke-linejoin:miter;stroke-miterlimit:4;stroke-dasharray:none;stroke-opacity:1"
         d="m 986.719,1844.57 h 127.121 c 2.66,0 4.86,-2.68 4.86,-5.9 0,-3.22 -2.2,-5.86 -4.86,-5.86 H 986.719 c -2.676,0 -4.871,2.64 -4.871,5.86 0,3.22 2.195,5.9 4.871,5.9 z" /><path
         id="path166"
         style="fill:#efee0e;fill-opacity:1;fill-rule:evenodd;stroke:none"
         d="m 1032.94,1844.79 c 0.14,24.83 16.94,31.86 17.06,31.86 0,0 17.54,-7.26 17.69,-31.86 h -34.75" /><path
         id="path168"
         style="fill:none;stroke:#231f20;stroke-width:3.72772002;stroke-linecap:butt;stroke-linejoin:miter;stroke-miterlimit:4;stroke-dasharray:none;stroke-opacity:1"
         d="m 1032.94,1844.79 c 0.14,24.83 16.94,31.86 17.06,31.86 0,0 17.54,-7.26 17.69,-31.86 h -34.75" /><path
         id="path170"
         style="fill:#efee0e;fill-opacity:1;fill-rule:evenodd;stroke:none"
         d="m 989.426,1912.06 h 121.844 c 2.57,0 4.69,-2.38 4.69,-5.3 0,-2.9 -2.12,-5.29 -4.69,-5.29 H 989.426 c -2.563,0 -4.653,2.39 -4.653,5.29 0,2.92 2.09,5.3 4.653,5.3" /><path
         id="path172"
         style="fill:none;stroke:#231f20;stroke-width:3.74257994;stroke-linecap:butt;stroke-linejoin:miter;stroke-miterlimit:4;stroke-dasharray:none;stroke-opacity:1"
         d="m 989.426,1912.14 h 121.844 c 2.57,0 4.69,-2.38 4.69,-5.31 0,-2.89 -2.12,-5.28 -4.69,-5.28 H 989.426 c -2.563,0 -4.653,2.39 -4.653,5.28 0,2.93 2.09,5.31 4.653,5.31 z" /><path
         id="path174"
         style="fill:#efee0e;fill-opacity:1;fill-rule:evenodd;stroke:none"
         d="m 991.992,1901.47 h 116.528 c 2.46,0 4.47,-2.38 4.47,-5.26 0,-2.94 -2.01,-5.32 -4.47,-5.32 H 991.992 c -2.449,0 -4.465,2.38 -4.465,5.32 0,2.88 2.016,5.26 4.465,5.26" /><path
         id="path176"
         style="fill:none;stroke:#231f20;stroke-width:3.74257994;stroke-linecap:butt;stroke-linejoin:miter;stroke-miterlimit:4;stroke-dasharray:none;stroke-opacity:1"
         d="m 991.992,1901.47 h 116.528 c 2.46,0 4.47,-2.38 4.47,-5.26 0,-2.94 -2.01,-5.32 -4.47,-5.32 H 991.992 c -2.449,0 -4.465,2.38 -4.465,5.32 0,2.88 2.016,5.26 4.465,5.26 z" /><path
         id="path178"
         style="fill:#efee0e;fill-opacity:1;fill-rule:evenodd;stroke:none"
         d="m 1030.08,1980.91 h 9.01 v -6.55 h 6.55 v 6.69 l 9.23,-0.02 v -6.67 h 6.59 v 6.69 l 9.23,-0.02 v -15.1 c 0,-2.35 -1.86,-3.88 -4.03,-3.88 h -32.37 c -2.2,0 -4.21,1.76 -4.21,3.96 v 14.9" /><path
         id="path180"
         style="fill:none;stroke:#231f20;stroke-width:3.75187993;stroke-linecap:butt;stroke-linejoin:miter;stroke-miterlimit:4;stroke-dasharray:none;stroke-opacity:1"
         d="m 1029.64,1980.91 9.2,-0.04 v -6.51 h 6.69 v 6.67 h 9.45 v -6.67 h 6.74 v 6.67 h 9.41 v -15.1 c 0,-2.35 -1.9,-3.88 -4.14,-3.88 h -33.06 c -2.24,0 -4.29,1.76 -4.29,3.96 l -0.04,14.9 z" /><path
         id="path182"
         style="fill:#efee0e;fill-opacity:1;fill-rule:evenodd;stroke:none"
         d="m 1064.28,1960.73 2.09,-48.42 -32.3,0.15 2.16,48.38 28.05,-0.11" /><path
         id="path184"
         style="fill:none;stroke:#231f20;stroke-width:3.7423501;stroke-linecap:butt;stroke-linejoin:miter;stroke-miterlimit:4;stroke-dasharray:none;stroke-opacity:1"
         d="m 1064.28,1960.73 2.09,-48.38 -32.3,0.11 2.16,48.38 28.05,-0.11" /><path
         id="path186"
         style="fill:#efee0e;fill-opacity:1;fill-rule:evenodd;stroke:none"
         d="m 1069.67,1957.22 9.01,-0.04 v -6.53 h 6.55 v 6.67 l 9.22,-0.03 v -6.64 h 6.59 v 6.67 h 9.24 v -15.08 c 0,-2.39 -1.87,-3.92 -4.03,-3.92 h -32.37 c -2.2,0 -4.21,1.79 -4.21,3.96 v 14.9" /><path
         id="path188"
         style="fill:none;stroke:#231f20;stroke-width:3.75959992;stroke-linecap:butt;stroke-linejoin:miter;stroke-miterlimit:4;stroke-dasharray:none;stroke-opacity:1"
         d="m 1104.46,1938.32 0.98,-26.11 h -30.95 l 0.89,26.07 h 29.11 -0.03 z" /><path
         id="path190"
         style="fill:none;stroke:#231f20;stroke-width:3.75127006;stroke-linecap:butt;stroke-linejoin:miter;stroke-miterlimit:4;stroke-dasharray:none;stroke-opacity:1"
         d="m 1069.67,1957.29 9.01,-0.04 v -6.52 h 6.58 v 6.66 l 9.19,-0.03 v -6.67 h 6.59 v 6.7 h 9.24 v -15.08 c 0,-2.34 -1.87,-3.88 -4.03,-3.88 h -32.37 c -2.17,0 -4.17,1.76 -4.17,3.92 z" /><path
         id="path192"
         style="fill:#efee0e;fill-opacity:1;fill-rule:evenodd;stroke:none"
         d="m 990.09,1957.22 9.004,-0.04 v -6.53 h 6.586 v 6.67 l 9.24,-0.03 v -6.64 h 6.59 v 6.67 h 9.22 l -0.04,-15.08 c 0,-2.39 -1.86,-3.92 -4.01,-3.92 h -32.371 c -2.168,0 -4.192,1.79 -4.192,3.96 v 14.9" /><path
         id="path194"
         style="fill:none;stroke:#231f20;stroke-width:3.75127006;stroke-linecap:butt;stroke-linejoin:miter;stroke-miterlimit:4;stroke-dasharray:none;stroke-opacity:1"
         d="m 990.09,1957.22 9.004,-0.04 v -6.56 h 6.586 v 6.7 l 9.24,-0.03 v -6.67 h 6.59 v 6.7 h 9.22 l -0.04,-15.08 c 0,-2.39 -1.86,-3.92 -4.01,-3.92 h -32.371 c -2.168,0 -4.192,1.79 -4.192,3.96 l -0.027,14.9 z" /><path
         id="path196"
         style="fill:#efee0e;fill-opacity:1;fill-rule:evenodd;stroke:none"
         d="m 1024.91,1938.32 1,-26.11 h -30.949 l 0.84,26.07 h 29.109" /><path
         id="path198"
         style="fill:none;stroke:#231f20;stroke-width:3.75959992;stroke-linecap:butt;stroke-linejoin:miter;stroke-miterlimit:4;stroke-dasharray:none;stroke-opacity:1"
         d="m 1024.91,1938.32 1,-26.11 h -30.949 l 0.879,26.07 h 29.07 z" /><path
         id="path200"
         style="fill:#231f20;fill-opacity:1;fill-rule:evenodd;stroke:none"
         d="m 1047.1,1945.43 c -0.18,4.69 6.56,4.76 6.49,0 v -11.54 h -6.49 v 11.54" /><path
         id="path202"
         style="fill:#231f20;fill-opacity:1;fill-rule:evenodd;stroke:none"
         d="m 1086.94,1928.69 c -0.03,4.54 6.27,4.65 6.2,0 v -8.9 h -6.2 v 8.9" /><path
         id="path204"
         style="fill:#231f20;fill-opacity:1;fill-rule:evenodd;stroke:none"
         d="m 1007.12,1928.69 c 0,4.54 6.3,4.65 6.22,0 v -8.9 h -6.22 v 8.9" /><path
         id="path206"
         style="fill:#efee0e;fill-opacity:1;fill-rule:evenodd;stroke:none"
         d="m 1443.5,1938.32 0.98,-26.11 h -30.94 l 0.87,26.07 h 29.09" /><path
         id="path208"
         style="fill:#efee0e;fill-opacity:1;fill-rule:evenodd;stroke:none"
         d="m 1358.32,1841.79 c 1.02,41.37 30.39,51.19 30.61,51.34 0.22,0.14 31.71,-10.54 31.64,-51.75 l -62.25,0.41" /><path
         id="path210"
         style="fill:#efee0e;fill-opacity:1;fill-rule:evenodd;stroke:none"
         d="m 1332.98,1892.39 -5.14,-47.6 31.06,-0.04 c 0.29,39.37 29.81,45.88 30.54,45.74 0.66,0.04 29.92,-8.67 30.69,-45.74 h 31.13 l -5.64,47.95 -112.64,-0.31" /><path
         id="path212"
         style="fill:none;stroke:#231f20;stroke-width:3.74519992;stroke-linecap:butt;stroke-linejoin:miter;stroke-miterlimit:4;stroke-dasharray:none;stroke-opacity:1"
         d="m 1332.98,1892.32 -5.14,-47.57 31.06,-0.07 c 0.29,39.36 29.81,45.92 30.54,45.77 0.66,0.04 29.92,-8.71 30.69,-45.77 h 31.13 l -5.64,47.94 z" /><path
         id="path214"
         style="fill:#efee0e;fill-opacity:1;fill-rule:evenodd;stroke:none"
         d="m 1325.75,1844.57 h 127.12 c 2.68,0 4.86,-2.68 4.86,-5.9 0,-3.22 -2.18,-5.86 -4.86,-5.86 h -127.12 c -2.66,0 -4.86,2.64 -4.86,5.86 0,3.22 2.2,5.9 4.86,5.9" /><path
         id="path216"
         style="fill:none;stroke:#231f20;stroke-width:3.74572992;stroke-linecap:butt;stroke-linejoin:miter;stroke-miterlimit:4;stroke-dasharray:none;stroke-opacity:1"
         d="m 1325.75,1844.57 h 127.12 c 2.68,0 4.86,-2.68 4.86,-5.9 0,-3.22 -2.18,-5.86 -4.86,-5.86 h -127.12 c -2.66,0 -4.86,2.64 -4.86,5.86 0,3.22 2.2,5.9 4.86,5.9 z" /><path
         id="path218"
         style="fill:#efee0e;fill-opacity:1;fill-rule:evenodd;stroke:none"
         d="m 1371.97,1844.79 c 0.15,24.83 16.96,31.86 17.03,31.86 0.03,0 17.58,-7.26 17.73,-31.86 h -34.76" /><path
         id="path220"
         style="fill:none;stroke:#231f20;stroke-width:3.72772002;stroke-linecap:butt;stroke-linejoin:miter;stroke-miterlimit:4;stroke-dasharray:none;stroke-opacity:1"
         d="m 1371.97,1844.79 c 0.15,24.83 16.96,31.86 17.03,31.86 0.03,0 17.58,-7.26 17.73,-31.86 h -34.76" /><path
         id="path222"
         style="fill:#efee0e;fill-opacity:1;fill-rule:evenodd;stroke:none"
         d="m 1328.47,1912.06 h 121.83 c 2.57,0 4.69,-2.38 4.69,-5.3 0,-2.9 -2.12,-5.29 -4.69,-5.29 h -121.83 c -2.56,0 -4.65,2.39 -4.65,5.29 0,2.92 2.09,5.3 4.65,5.3" /><path
         id="path224"
         style="fill:none;stroke:#231f20;stroke-width:3.74257994;stroke-linecap:butt;stroke-linejoin:miter;stroke-miterlimit:4;stroke-dasharray:none;stroke-opacity:1"
         d="m 1328.47,1912.14 h 121.83 c 2.57,0 4.69,-2.38 4.69,-5.31 0,-2.89 -2.12,-5.28 -4.69,-5.28 h -121.83 c -2.56,0 -4.65,2.39 -4.65,5.28 0,2.93 2.09,5.31 4.65,5.31 z" /><path
         id="path226"
         style="fill:#efee0e;fill-opacity:1;fill-rule:evenodd;stroke:none"
         d="m 1331.04,1901.47 h 116.52 c 2.45,0 4.47,-2.38 4.47,-5.26 0,-2.94 -2.02,-5.32 -4.47,-5.32 h -116.52 c -2.47,0 -4.48,2.38 -4.48,5.32 0,2.88 2.01,5.26 4.48,5.26" /><path
         id="path228"
         style="fill:none;stroke:#231f20;stroke-width:3.74257994;stroke-linecap:butt;stroke-linejoin:miter;stroke-miterlimit:4;stroke-dasharray:none;stroke-opacity:1"
         d="m 1331.04,1901.47 h 116.52 c 2.45,0 4.47,-2.38 4.47,-5.26 0,-2.94 -2.02,-5.32 -4.47,-5.32 h -116.52 c -2.47,0 -4.48,2.38 -4.48,5.32 0,2.88 2.01,5.26 4.48,5.26 z" /><path
         id="path230"
         style="fill:#efee0e;fill-opacity:1;fill-rule:evenodd;stroke:none"
         d="m 1369.11,1980.91 h 9.02 v -6.55 h 6.55 v 6.69 l 9.24,-0.02 v -6.67 h 6.59 v 6.69 l 9.22,-0.02 v -15.1 c 0,-2.35 -1.87,-3.88 -4.04,-3.88 h -32.37 c -2.19,0 -4.21,1.76 -4.21,3.96 v 14.9" /><path
         id="path232"
         style="fill:none;stroke:#231f20;stroke-width:3.75187993;stroke-linecap:butt;stroke-linejoin:miter;stroke-miterlimit:4;stroke-dasharray:none;stroke-opacity:1"
         d="m 1368.67,1980.91 9.2,-0.04 v -6.51 h 6.7 v 6.67 h 9.44 v -6.67 h 6.74 v 6.67 h 9.42 v -15.1 c 0,-2.35 -1.91,-3.88 -4.13,-3.88 h -33.08 c -2.23,0 -4.29,1.76 -4.29,3.96 l -0.04,14.9 z" /><path
         id="path234"
         style="fill:#efee0e;fill-opacity:1;fill-rule:evenodd;stroke:none"
         d="m 1403.32,1960.73 2.09,-48.42 -32.3,0.15 2.15,48.38 28.06,-0.11" /><path
         id="path236"
         style="fill:none;stroke:#231f20;stroke-width:3.7423501;stroke-linecap:butt;stroke-linejoin:miter;stroke-miterlimit:4;stroke-dasharray:none;stroke-opacity:1"
         d="m 1403.32,1960.73 2.09,-48.38 -32.3,0.11 2.15,48.38 28.06,-0.11" /><path
         id="path238"
         style="fill:#efee0e;fill-opacity:1;fill-rule:evenodd;stroke:none"
         d="m 1408.7,1957.22 9.01,-0.04 v -6.53 h 6.56 v 6.67 l 9.23,-0.03 v -6.64 h 6.59 v 6.67 h 9.23 v -15.08 c 0,-2.39 -1.87,-3.92 -4.04,-3.92 h -32.36 c -2.2,0 -4.22,1.79 -4.22,3.96 v 14.9" /><path
         id="path240"
         style="fill:none;stroke:#231f20;stroke-width:3.75959992;stroke-linecap:butt;stroke-linejoin:miter;stroke-miterlimit:4;stroke-dasharray:none;stroke-opacity:1"
         d="m 1443.5,1938.32 0.98,-26.11 h -30.94 l 0.87,26.07 h 29.13 -0.04 z" /><path
         id="path242"
         style="fill:none;stroke:#231f20;stroke-width:3.75127006;stroke-linecap:butt;stroke-linejoin:miter;stroke-miterlimit:4;stroke-dasharray:none;stroke-opacity:1"
         d="m 1408.7,1957.29 9.01,-0.04 v -6.52 h 6.6 v 6.66 l 9.19,-0.03 v -6.67 h 6.59 v 6.7 h 9.23 v -15.08 c 0,-2.34 -1.87,-3.88 -4.04,-3.88 h -32.36 c -2.17,0 -4.18,1.76 -4.22,3.92 z" /><path
         id="path244"
         style="fill:#efee0e;fill-opacity:1;fill-rule:evenodd;stroke:none"
         d="m 1329.12,1957.22 9.01,-0.04 v -6.53 h 6.6 v 6.67 l 9.23,-0.03 v -6.64 h 6.59 v 6.67 h 9.23 l -0.04,-15.08 c 0,-2.39 -1.87,-3.92 -4.03,-3.92 h -32.37 c -2.17,0 -4.18,1.79 -4.18,3.96 v 14.9" /><path
         id="path246"
         style="fill:none;stroke:#231f20;stroke-width:3.75127006;stroke-linecap:butt;stroke-linejoin:miter;stroke-miterlimit:4;stroke-dasharray:none;stroke-opacity:1"
         d="m 1329.12,1957.22 9.01,-0.04 v -6.56 h 6.6 v 6.7 l 9.23,-0.03 v -6.67 h 6.59 v 6.7 h 9.23 l -0.04,-15.08 c 0,-2.39 -1.87,-3.92 -4.03,-3.92 h -32.37 c -2.17,0 -4.18,1.79 -4.18,3.96 l -0.04,14.9 z" /><path
         id="path248"
         style="fill:#efee0e;fill-opacity:1;fill-rule:evenodd;stroke:none"
         d="m 1363.95,1938.32 0.99,-26.11 h -30.95 l 0.85,26.07 h 29.11" /><path
         id="path250"
         style="fill:none;stroke:#231f20;stroke-width:3.75959992;stroke-linecap:butt;stroke-linejoin:miter;stroke-miterlimit:4;stroke-dasharray:none;stroke-opacity:1"
         d="m 1363.95,1938.32 0.99,-26.11 h -30.95 l 0.88,26.07 h 29.08 z" /><path
         id="path252"
         style="fill:#231f20;fill-opacity:1;fill-rule:evenodd;stroke:none"
         d="m 1386.14,1945.43 c -0.17,4.69 6.57,4.76 6.49,0 v -11.54 h -6.49 v 11.54" /><path
         id="path254"
         style="fill:#231f20;fill-opacity:1;fill-rule:evenodd;stroke:none"
         d="m 1425.99,1928.69 c -0.03,4.54 6.26,4.65 6.19,0 v -8.9 h -6.19 v 8.9" /><path
         id="path256"
         style="fill:#231f20;fill-opacity:1;fill-rule:evenodd;stroke:none"
         d="m 1346.15,1928.69 c 0,4.54 6.3,4.65 6.23,0 v -8.9 h -6.23 v 8.9" /><path
         id="path258"
         style="fill:#efee0e;fill-opacity:1;fill-rule:evenodd;stroke:none"
         d="m 761.602,1590.89 0.996,-26.08 h -30.95 l 0.879,26.08 h 29.075" /><path
         id="path260"
         style="fill:#efee0e;fill-opacity:1;fill-rule:evenodd;stroke:none"
         d="m 676.426,1494.36 c 1.023,41.41 30.398,51.24 30.617,51.38 0.184,0.15 31.719,-10.58 31.602,-51.75 l -62.219,0.37" /><path
         id="path262"
         style="fill:#efee0e;fill-opacity:1;fill-rule:evenodd;stroke:none"
         d="m 651.086,1545.01 -5.129,-47.61 31.055,-0.08 c 0.293,39.37 29.812,45.93 30.547,45.79 0.656,0.03 29.914,-8.69 30.683,-45.79 h 31.121 l -5.633,47.98 -112.644,-0.29" /><path
         id="path264"
         style="fill:none;stroke:#231f20;stroke-width:3.74519992;stroke-linecap:butt;stroke-linejoin:miter;stroke-miterlimit:4;stroke-dasharray:none;stroke-opacity:1"
         d="m 651.086,1544.93 -5.129,-47.61 31.055,-0.03 c 0.293,39.37 29.812,45.88 30.508,45.74 0.695,0.04 29.921,-8.68 30.722,-45.74 h 31.121 l -5.633,47.93 z" /><path
         id="path266"
         style="fill:#efee0e;fill-opacity:1;fill-rule:evenodd;stroke:none"
         d="m 643.879,1497.14 h 127.098 c 2.675,0 4.843,-2.64 4.843,-5.86 0,-3.21 -2.168,-5.86 -4.843,-5.86 H 643.879 c -2.68,0 -4.875,2.61 -4.875,5.86 0,3.22 2.195,5.86 4.875,5.86" /><path
         id="path268"
         style="fill:none;stroke:#231f20;stroke-width:3.74572992;stroke-linecap:butt;stroke-linejoin:miter;stroke-miterlimit:4;stroke-dasharray:none;stroke-opacity:1"
         d="m 643.879,1497.14 h 127.098 c 2.675,0 4.882,-2.64 4.882,-5.86 0,-3.25 -2.207,-5.86 -4.882,-5.86 H 643.879 c -2.68,0 -4.875,2.61 -4.875,5.86 0,3.22 2.195,5.86 4.875,5.86 z" /><path
         id="path270"
         style="fill:#efee0e;fill-opacity:1;fill-rule:evenodd;stroke:none"
         d="m 690.09,1497.36 c 0.105,24.87 16.953,31.9 17.027,31.86 0,0 17.578,-7.25 17.719,-31.86 H 690.09" /><path
         id="path272"
         style="fill:none;stroke:#231f20;stroke-width:3.72772002;stroke-linecap:butt;stroke-linejoin:miter;stroke-miterlimit:4;stroke-dasharray:none;stroke-opacity:1"
         d="m 690.09,1497.36 c 0.105,24.87 16.953,31.9 17.027,31.86 0,0 17.578,-7.25 17.719,-31.86 H 690.09" /><path
         id="path274"
         style="fill:#efee0e;fill-opacity:1;fill-rule:evenodd;stroke:none"
         d="m 646.582,1564.64 h 121.836 c 2.559,0 4.656,-2.35 4.656,-5.27 0,-2.91 -2.097,-5.28 -4.656,-5.28 H 646.582 c -2.566,0 -4.687,2.37 -4.687,5.28 0,2.92 2.121,5.27 4.687,5.27" /><path
         id="path276"
         style="fill:none;stroke:#231f20;stroke-width:3.74257994;stroke-linecap:butt;stroke-linejoin:miter;stroke-miterlimit:4;stroke-dasharray:none;stroke-opacity:1"
         d="m 646.582,1564.71 h 121.836 c 2.559,0 4.656,-2.39 4.656,-5.28 0,-2.89 -2.097,-5.27 -4.656,-5.27 H 646.582 c -2.566,0 -4.687,2.34 -4.687,5.27 0,2.89 2.121,5.28 4.687,5.28 z" /><path
         id="path278"
         style="fill:#efee0e;fill-opacity:1;fill-rule:evenodd;stroke:none"
         d="m 649.102,1554.09 h 116.574 c 2.461,0 4.461,-2.38 4.461,-5.31 0,-2.89 -2,-5.27 -4.461,-5.27 H 649.102 c -2.442,0 -4.422,2.38 -4.422,5.27 0,2.93 1.98,5.31 4.422,5.31" /><path
         id="path280"
         style="fill:none;stroke:#231f20;stroke-width:3.74257994;stroke-linecap:butt;stroke-linejoin:miter;stroke-miterlimit:4;stroke-dasharray:none;stroke-opacity:1"
         d="m 649.102,1554.09 h 116.574 c 2.461,0 4.461,-2.38 4.461,-5.31 0,-2.89 -2,-5.27 -4.461,-5.27 H 649.102 c -2.442,0 -4.422,2.38 -4.422,5.27 0,2.93 1.98,5.31 4.422,5.31 z" /><path
         id="path282"
         style="fill:#efee0e;fill-opacity:1;fill-rule:evenodd;stroke:none"
         d="m 687.234,1633.52 h 8.977 v -6.56 h 6.582 v 6.71 l 9.227,-0.04 v -6.67 h 6.593 v 6.67 h 9.239 l -0.039,-15.09 c 0,-2.34 -1.868,-3.88 -3.997,-3.88 h -32.41 c -2.16,0 -4.172,1.76 -4.172,3.95 v 14.91" /><path
         id="path284"
         style="fill:none;stroke:#231f20;stroke-width:3.75187993;stroke-linecap:butt;stroke-linejoin:miter;stroke-miterlimit:4;stroke-dasharray:none;stroke-opacity:1"
         d="m 686.797,1633.49 h 9.18 v -6.53 h 6.711 v 6.67 l 9.414,-0.04 v -6.67 h 6.738 v 6.71 h 9.453 l -0.039,-15.09 c 0,-2.38 -1.906,-3.91 -4.113,-3.91 h -33.067 c -2.226,0 -4.277,1.79 -4.277,3.94 l -0.039,14.92 z" /><path
         id="path286"
         style="fill:#efee0e;fill-opacity:1;fill-rule:evenodd;stroke:none"
         d="m 721.438,1613.34 2.046,-48.41 -32.261,0.11 2.168,48.38 28.047,-0.11" /><path
         id="path288"
         style="fill:none;stroke:#231f20;stroke-width:3.7423501;stroke-linecap:butt;stroke-linejoin:miter;stroke-miterlimit:4;stroke-dasharray:none;stroke-opacity:1"
         d="m 721.438,1613.34 2.046,-48.41 -32.261,0.14 2.168,48.39 28.047,-0.12" /><path
         id="path290"
         style="fill:#efee0e;fill-opacity:1;fill-rule:evenodd;stroke:none"
         d="m 726.816,1609.79 h 9.004 v -6.55 h 6.563 v 6.7 l 9.226,-0.04 v -6.66 h 6.594 v 6.7 l 9.231,-0.04 v -15.09 c 0,-2.34 -1.868,-3.88 -4.028,-3.88 h -32.371 c -2.207,0 -4.219,1.77 -4.219,3.95 v 14.91" /><path
         id="path292"
         style="fill:none;stroke:#231f20;stroke-width:3.75959992;stroke-linecap:butt;stroke-linejoin:miter;stroke-miterlimit:4;stroke-dasharray:none;stroke-opacity:1"
         d="m 761.602,1590.89 0.996,-26.08 h -30.95 l 0.879,26.08 z" /><path
         id="path294"
         style="fill:none;stroke:#231f20;stroke-width:3.75127006;stroke-linecap:butt;stroke-linejoin:miter;stroke-miterlimit:4;stroke-dasharray:none;stroke-opacity:1"
         d="m 726.816,1609.86 h 9.004 v -6.55 h 6.563 v 6.7 l 9.226,-0.04 v -6.66 h 6.594 v 6.7 l 9.231,-0.04 v -15.09 c 0,-2.34 -1.868,-3.87 -4.028,-3.87 h -32.371 c -2.168,0 -4.219,1.75 -4.219,3.95 z" /><path
         id="path296"
         style="fill:#efee0e;fill-opacity:1;fill-rule:evenodd;stroke:none"
         d="m 647.234,1609.79 h 9.016 v -6.55 h 6.594 v 6.7 l 9.199,-0.04 v -6.66 h 6.59 v 6.7 l 9.219,-0.04 v -15.09 c 0,-2.34 -1.868,-3.88 -4.036,-3.88 h -32.371 c -2.148,0 -4.172,1.77 -4.172,3.95 l -0.039,14.91" /><path
         id="path298"
         style="fill:none;stroke:#231f20;stroke-width:3.75127006;stroke-linecap:butt;stroke-linejoin:miter;stroke-miterlimit:4;stroke-dasharray:none;stroke-opacity:1"
         d="m 647.234,1609.79 h 9.016 v -6.55 h 6.594 v 6.7 l 9.199,-0.04 v -6.66 h 6.59 v 6.7 l 9.219,-0.04 v -15.09 c 0,-2.35 -1.868,-3.88 -4.036,-3.88 h -32.371 c -2.148,0 -4.172,1.77 -4.172,3.95 z" /><path
         id="path300"
         style="fill:#efee0e;fill-opacity:1;fill-rule:evenodd;stroke:none"
         d="m 682.07,1590.89 0.95,-26.08 h -30.942 l 0.871,26.08 h 29.121" /><path
         id="path302"
         style="fill:none;stroke:#231f20;stroke-width:3.75959992;stroke-linecap:butt;stroke-linejoin:miter;stroke-miterlimit:4;stroke-dasharray:none;stroke-opacity:1"
         d="m 682.07,1590.89 0.95,-26.08 h -30.903 l 0.832,26.08 h 29.121 -0.039 z" /><path
         id="path304"
         style="fill:#231f20;fill-opacity:1;fill-rule:evenodd;stroke:none"
         d="m 704.258,1598.04 c -0.215,4.68 6.555,4.75 6.484,0 v -11.54 h -6.484 v 11.54" /><path
         id="path306"
         style="fill:#231f20;fill-opacity:1;fill-rule:evenodd;stroke:none"
         d="m 744.063,1581.3 c 0,4.54 6.296,4.65 6.23,0 v -8.9 h -6.23 v 8.9" /><path
         id="path308"
         style="fill:#231f20;fill-opacity:1;fill-rule:evenodd;stroke:none"
         d="m 664.27,1581.3 c 0,4.54 6.296,4.65 6.191,0 v -8.9 h -6.191 v 8.9" /><path
         id="path310"
         style="fill:#efee0e;fill-opacity:1;fill-rule:evenodd;stroke:none"
         d="m 1371.43,1184.11 -17.73,-19.15 -21.89,21.9 19.07,17.83 20.55,-20.58" /><path
         id="path312"
         style="fill:#efee0e;fill-opacity:1;fill-rule:evenodd;stroke:none"
         d="m 1242.96,1176.08 c 29.99,28.57 57.67,14.73 57.94,14.69 0.24,-0.07 14.97,-29.92 -14.22,-58.95 l -43.72,44.26" /><path
         id="path314"
         style="fill:#efee0e;fill-opacity:1;fill-rule:evenodd;stroke:none"
         d="m 1260.82,1229.81 -37.27,-30.02 21.9,-22.02 c 28.05,27.61 53.57,11.39 53.97,10.77 0.48,-0.44 14.98,-27.29 -10.69,-54.09 l 22.04,-22.01 29.93,37.9 -79.88,79.47" /><path
         id="path316"
         style="fill:none;stroke:#231f20;stroke-width:3.74521995;stroke-linecap:butt;stroke-linejoin:miter;stroke-miterlimit:4;stroke-dasharray:none;stroke-opacity:1"
         d="m 1260.75,1229.74 -37.23,-30.04 21.88,-22 c 28.07,27.64 53.55,11.42 53.96,10.81 0.5,-0.45 15.01,-27.33 -10.66,-54.11 l 22,-22 29.96,37.91 -79.87,79.47 z" /><path
         id="path318"
         style="fill:#efee0e;fill-opacity:1;fill-rule:evenodd;stroke:none"
         d="m 1221.9,1201.06 89.87,-89.87 c 1.86,-1.9 1.57,-5.3 -0.73,-7.58 -2.27,-2.3 -5.69,-2.6 -7.58,-0.73 l -89.88,89.87 c -1.9,1.91 -1.57,5.31 0.7,7.58 2.31,2.31 5.72,2.63 7.62,0.73" /><path
         id="path320"
         style="fill:none;stroke:#231f20;stroke-width:3.74574995;stroke-linecap:butt;stroke-linejoin:miter;stroke-miterlimit:4;stroke-dasharray:none;stroke-opacity:1"
         d="m 1221.9,1201.06 89.87,-89.86 c 1.9,-1.9 1.56,-5.31 -0.74,-7.63 -2.27,-2.26 -5.68,-2.55 -7.57,-0.69 l -89.88,89.87 c -1.9,1.91 -1.57,5.31 0.7,7.58 2.3,2.31 5.72,2.64 7.62,0.73 z" /><path
         id="path322"
         style="fill:#efee0e;fill-opacity:1;fill-rule:evenodd;stroke:none"
         d="m 1254.72,1168.54 c 17.68,17.48 34.53,10.55 34.6,10.48 0,0 7.29,-17.55 -10.03,-35.06 l -24.57,24.58" /><path
         id="path324"
         style="fill:none;stroke:#231f20;stroke-width:3.72774005;stroke-linecap:butt;stroke-linejoin:miter;stroke-miterlimit:4;stroke-dasharray:none;stroke-opacity:1"
         d="m 1254.72,1168.54 c 17.67,17.48 34.53,10.55 34.61,10.48 0,0 7.28,-17.55 -10.04,-35.06 l -24.57,24.58" /><path
         id="path326"
         style="fill:#efee0e;fill-opacity:1;fill-rule:evenodd;stroke:none"
         d="m 1271.52,1246.87 86.17,-86.13 c 1.79,-1.83 1.61,-4.98 -0.44,-7.06 -2.04,-2.02 -5.24,-2.24 -7.04,-0.41 l -86.16,86.13 c -1.79,1.83 -1.61,4.98 0.44,7.04 2.05,2.09 5.24,2.26 7.03,0.43" /><path
         id="path328"
         style="fill:none;stroke:#231f20;stroke-width:3.74258995;stroke-linecap:butt;stroke-linejoin:miter;stroke-miterlimit:4;stroke-dasharray:none;stroke-opacity:1"
         d="m 1271.59,1246.95 86.13,-86.18 c 1.83,-1.79 1.62,-4.96 -0.43,-7.02 -2.06,-2.05 -5.21,-2.28 -7.04,-0.45 l -86.14,86.18 c -1.82,1.79 -1.64,4.93 0.45,7.03 2.02,2.05 5.2,2.23 7.03,0.44 z" /><path
         id="path330"
         style="fill:#efee0e;fill-opacity:1;fill-rule:evenodd;stroke:none"
         d="m 1265.84,1237.62 82.43,-82.44 c 1.73,-1.72 1.48,-4.84 -0.57,-6.89 -2.06,-2.05 -5.17,-2.31 -6.89,-0.55 l -82.43,82.4 c -1.73,1.72 -1.48,4.83 0.58,6.88 2.06,2.05 5.16,2.31 6.88,0.6" /><path
         id="path332"
         style="fill:none;stroke:#231f20;stroke-width:3.74258995;stroke-linecap:butt;stroke-linejoin:miter;stroke-miterlimit:4;stroke-dasharray:none;stroke-opacity:1"
         d="m 1265.85,1237.62 82.39,-82.41 c 1.76,-1.74 1.51,-4.83 -0.54,-6.92 -2.06,-2.06 -5.17,-2.3 -6.89,-0.55 l -82.43,82.4 c -1.73,1.73 -1.48,4.83 0.58,6.88 2.06,2.05 5.16,2.32 6.89,0.6 z" /><path
         id="path334"
         style="fill:#efee0e;fill-opacity:1;fill-rule:evenodd;stroke:none"
         d="m 1348.97,1266.84 6.33,-6.38 -4.61,-4.61 4.65,-4.65 4.73,4.72 6.52,-6.55 -4.72,-4.69 4.64,-4.65 4.73,4.72 6.52,-6.56 -10.66,-10.65 c -1.68,-1.64 -4.06,-1.43 -5.6,0.11 l -22.89,22.89 c -1.54,1.54 -1.72,4.21 -0.18,5.75 l 10.54,10.55" /><path
         id="path336"
         style="fill:none;stroke:#231f20;stroke-width:3.75188994;stroke-linecap:butt;stroke-linejoin:miter;stroke-miterlimit:4;stroke-dasharray:none;stroke-opacity:1"
         d="m 1348.65,1267.13 6.48,-6.52 -4.61,-4.61 4.75,-4.73 4.73,4.73 6.63,-6.7 -4.69,-4.69 4.77,-4.77 4.73,4.73 6.66,-6.71 -10.7,-10.65 c -1.69,-1.65 -4.11,-1.39 -5.68,0.14 l -23.36,23.4 c -1.58,1.58 -1.8,4.29 -0.25,5.83 l 10.54,10.58 z" /><path
         id="path338"
         style="fill:#efee0e;fill-opacity:1;fill-rule:evenodd;stroke:none"
         d="m 1358.86,1228.38 -32.74,-35.7 -22.74,22.92 35.74,32.66 19.74,-19.92" /><path
         id="path340"
         style="fill:none;stroke:#231f20;stroke-width:3.74236989;stroke-linecap:butt;stroke-linejoin:miter;stroke-miterlimit:4;stroke-dasharray:none;stroke-opacity:1"
         d="m 1358.86,1228.38 -32.74,-35.7 -22.73,22.92 35.73,32.7 19.74,-19.92" /><path
         id="path342"
         style="fill:#efee0e;fill-opacity:1;fill-rule:evenodd;stroke:none"
         d="m 1360.19,1222.08 6.36,-6.37 -4.62,-4.65 4.66,-4.61 4.72,4.71 6.48,-6.55 -4.68,-4.73 4.65,-4.65 4.72,4.73 6.52,-6.51 -10.69,-10.67 c -1.65,-1.68 -4.06,-1.41 -5.6,0.08 l -22.9,22.88 c -1.54,1.55 -1.68,4.22 -0.14,5.79 l 10.52,10.55" /><path
         id="path344"
         style="fill:none;stroke:#231f20;stroke-width:3.75961995;stroke-linecap:butt;stroke-linejoin:miter;stroke-miterlimit:4;stroke-dasharray:none;stroke-opacity:1"
         d="m 1371.43,1184.11 -17.74,-19.15 -21.89,21.86 19.08,17.83 20.58,-20.54 z" /><path
         id="path346"
         style="fill:none;stroke:#231f20;stroke-width:3.75129008;stroke-linecap:butt;stroke-linejoin:miter;stroke-miterlimit:4;stroke-dasharray:none;stroke-opacity:1"
         d="m 1360.25,1222.13 6.34,-6.38 -4.62,-4.62 4.65,-4.66 4.73,4.73 6.51,-6.55 -4.73,-4.69 4.65,-4.69 4.77,4.73 6.48,-6.52 -10.64,-10.66 c -1.69,-1.69 -4.07,-1.42 -5.61,0.12 l -22.89,22.88 c -1.53,1.54 -1.72,4.22 -0.18,5.76 z" /><path
         id="path348"
         style="fill:#efee0e;fill-opacity:1;fill-rule:evenodd;stroke:none"
         d="m 1303.94,1278.33 6.36,-6.37 -4.65,-4.61 4.65,-4.65 4.73,4.71 6.51,-6.55 -4.71,-4.69 4.68,-4.69 4.72,4.73 6.52,-6.51 -10.69,-10.67 c -1.69,-1.68 -4.06,-1.41 -5.6,0.08 l -22.9,22.92 c -1.54,1.54 -1.71,4.18 -0.14,5.75 l 10.52,10.55" /><path
         id="path350"
         style="fill:none;stroke:#231f20;stroke-width:3.75129008;stroke-linecap:butt;stroke-linejoin:miter;stroke-miterlimit:4;stroke-dasharray:none;stroke-opacity:1"
         d="m 1303.94,1278.34 6.33,-6.38 -4.62,-4.61 4.65,-4.68 4.72,4.74 6.52,-6.54 -4.71,-4.73 4.64,-4.65 4.75,4.72 6.53,-6.52 -10.69,-10.66 c -1.69,-1.68 -4.06,-1.41 -5.6,0.08 l -22.89,22.88 c -1.54,1.55 -1.72,4.22 -0.18,5.8 z" /><path
         id="path352"
         style="fill:#efee0e;fill-opacity:1;fill-rule:evenodd;stroke:none"
         d="m 1315.18,1240.36 -17.73,-19.15 -21.89,21.9 19.03,17.83 20.59,-20.58" /><path
         id="path354"
         style="fill:none;stroke:#231f20;stroke-width:3.75961995;stroke-linecap:butt;stroke-linejoin:miter;stroke-miterlimit:4;stroke-dasharray:none;stroke-opacity:1"
         d="m 1315.18,1240.36 -17.74,-19.15 -21.89,21.9 19.08,17.83 z" /><path
         id="path356"
         style="fill:#231f20;fill-opacity:1;fill-rule:evenodd;stroke:none"
         d="m 1335.9,1229.7 c 3.19,3.47 8.03,-1.28 4.61,-4.57 l -8.17,-8.17 -4.57,4.61 8.13,8.13" /><path
         id="path358"
         style="fill:#231f20;fill-opacity:1;fill-rule:evenodd;stroke:none"
         d="m 1352.27,1189.71 c 3.19,3.22 7.69,-1.17 4.36,-4.39 l -6.3,-6.3 -4.36,4.39 6.3,6.3" /><path
         id="path360"
         style="fill:#231f20;fill-opacity:1;fill-rule:evenodd;stroke:none"
         d="m 1295.84,1246.14 c 3.18,3.23 7.69,-1.17 4.36,-4.39 l -6.3,-6.3 -4.36,4.39 6.3,6.3" /><path
         id="path362"
         style="fill:#efee0e;fill-opacity:1;fill-rule:evenodd;stroke:none"
         d="m 1442.98,1590.89 0.98,-26.08 -30.93,-0.02 0.87,26.1 h 29.08" /><path
         id="path364"
         style="fill:#efee0e;fill-opacity:1;fill-rule:evenodd;stroke:none"
         d="m 1357.8,1494.36 c 1.02,41.41 30.39,51.24 30.62,51.38 0.17,0.11 31.71,-10.58 31.6,-51.75 l -62.22,0.37" /><path
         id="path366"
         style="fill:#efee0e;fill-opacity:1;fill-rule:evenodd;stroke:none"
         d="m 1332.46,1545.01 -5.13,-47.61 31.06,-0.08 c 0.29,39.37 29.8,45.93 30.54,45.79 0.66,0.03 29.92,-8.69 30.69,-45.79 h 31.12 l -5.63,47.94 -112.65,-0.25" /><path
         id="path368"
         style="fill:none;stroke:#231f20;stroke-width:3.74519992;stroke-linecap:butt;stroke-linejoin:miter;stroke-miterlimit:4;stroke-dasharray:none;stroke-opacity:1"
         d="m 1332.46,1544.93 -5.13,-47.61 31.06,-0.06 c 0.29,39.36 29.8,45.91 30.5,45.77 0.7,0.04 29.92,-8.68 30.73,-45.77 h 31.12 l -5.63,47.96 -112.65,-0.29 v -0.04 z" /><path
         id="path370"
         style="fill:#efee0e;fill-opacity:1;fill-rule:evenodd;stroke:none"
         d="m 1325.24,1497.14 h 127.11 c 2.68,0 4.85,-2.64 4.85,-5.9 0,-3.17 -2.17,-5.86 -4.85,-5.86 h -127.11 c -2.67,0 -4.87,2.65 -4.87,5.86 0,3.26 2.2,5.9 4.87,5.9" /><path
         id="path372"
         style="fill:none;stroke:#231f20;stroke-width:3.74572992;stroke-linecap:butt;stroke-linejoin:miter;stroke-miterlimit:4;stroke-dasharray:none;stroke-opacity:1"
         d="m 1325.24,1497.14 h 127.11 c 2.68,0 4.88,-2.64 4.88,-5.9 0,-3.21 -2.2,-5.86 -4.88,-5.86 h -127.11 c -2.67,0 -4.87,2.65 -4.87,5.86 0,3.26 2.2,5.9 4.87,5.9 z" /><path
         id="path374"
         style="fill:#efee0e;fill-opacity:1;fill-rule:evenodd;stroke:none"
         d="m 1371.46,1497.36 c 0.15,24.87 16.96,31.9 17.03,31.86 0.04,0 17.57,-7.25 17.72,-31.86 h -34.75" /><path
         id="path376"
         style="fill:none;stroke:#231f20;stroke-width:3.72772002;stroke-linecap:butt;stroke-linejoin:miter;stroke-miterlimit:4;stroke-dasharray:none;stroke-opacity:1"
         d="m 1371.46,1497.36 c 0.15,24.87 16.96,31.9 17.03,31.86 0.04,0 17.57,-7.25 17.72,-31.86 h -34.75" /><path
         id="path378"
         style="fill:#efee0e;fill-opacity:1;fill-rule:evenodd;stroke:none"
         d="m 1327.95,1564.64 h 121.84 c 2.56,0 4.65,-2.38 4.65,-5.27 0,-2.91 -2.09,-5.28 -4.65,-5.28 h -121.84 c -2.56,0 -4.69,2.37 -4.69,5.28 0,2.89 2.13,5.27 4.69,5.27" /><path
         id="path380"
         style="fill:none;stroke:#231f20;stroke-width:3.74257994;stroke-linecap:butt;stroke-linejoin:miter;stroke-miterlimit:4;stroke-dasharray:none;stroke-opacity:1"
         d="m 1327.95,1564.71 h 121.84 c 2.56,0 4.65,-2.39 4.65,-5.28 0,-2.89 -2.09,-5.27 -4.65,-5.27 h -121.84 c -2.56,0 -4.69,2.34 -4.69,5.27 0,2.89 2.13,5.28 4.69,5.28 z" /><path
         id="path382"
         style="fill:#efee0e;fill-opacity:1;fill-rule:evenodd;stroke:none"
         d="m 1330.52,1554.05 h 116.53 c 2.44,0 4.46,-2.34 4.46,-5.27 0,-2.89 -2.02,-5.27 -4.46,-5.27 h -116.53 c -2.45,0 -4.48,2.38 -4.48,5.27 0,2.93 2.03,5.27 4.48,5.27" /><path
         id="path384"
         style="fill:none;stroke:#231f20;stroke-width:3.74257994;stroke-linecap:butt;stroke-linejoin:miter;stroke-miterlimit:4;stroke-dasharray:none;stroke-opacity:1"
         d="m 1330.52,1554.05 h 116.53 c 2.44,0 4.46,-2.34 4.46,-5.27 0,-2.89 -2.02,-5.27 -4.46,-5.27 h -116.53 c -2.45,0 -4.48,2.38 -4.48,5.27 0,2.93 2.03,5.27 4.48,5.27 z" /><path
         id="path386"
         style="fill:#efee0e;fill-opacity:1;fill-rule:evenodd;stroke:none"
         d="m 1368.6,1633.52 9.01,-0.03 v -6.53 h 6.56 v 6.67 h 9.23 v -6.67 h 6.59 v 6.67 h 9.22 l -0.03,-15.09 c 0,-2.34 -1.88,-3.88 -3.99,-3.88 h -32.37 c -2.2,0 -4.22,1.76 -4.22,3.95 v 14.91" /><path
         id="path388"
         style="fill:none;stroke:#231f20;stroke-width:3.75187993;stroke-linecap:butt;stroke-linejoin:miter;stroke-miterlimit:4;stroke-dasharray:none;stroke-opacity:1"
         d="m 1368.16,1633.49 h 9.19 v -6.57 h 6.71 v 6.71 l 9.45,-0.04 v -6.67 h 6.7 v 6.71 h 9.44 v -15.09 c 0,-2.38 -1.9,-3.91 -4.13,-3.91 h -33.07 c -2.24,0 -4.29,1.79 -4.29,3.94 l -0.03,14.92 z" /><path
         id="path390"
         style="fill:#efee0e;fill-opacity:1;fill-rule:evenodd;stroke:none"
         d="m 1402.81,1613.31 2.08,-48.38 -32.29,0.11 2.16,48.38 28.05,-0.11" /><path
         id="path392"
         style="fill:none;stroke:#231f20;stroke-width:3.7423501;stroke-linecap:butt;stroke-linejoin:miter;stroke-miterlimit:4;stroke-dasharray:none;stroke-opacity:1"
         d="m 1402.81,1613.31 2.08,-48.38 -32.29,0.11 2.16,48.42 28.05,-0.15" /><path
         id="path394"
         style="fill:#efee0e;fill-opacity:1;fill-rule:evenodd;stroke:none"
         d="m 1408.19,1609.79 h 9.01 v -6.55 h 6.55 v 6.7 l 9.24,-0.04 v -6.66 h 6.59 v 6.7 l 9.22,-0.04 v -15.09 c 0,-2.34 -1.87,-3.88 -4.02,-3.88 h -32.38 c -2.19,0 -4.21,1.77 -4.21,3.95 v 14.91" /><path
         id="path396"
         style="fill:none;stroke:#231f20;stroke-width:3.75959992;stroke-linecap:butt;stroke-linejoin:miter;stroke-miterlimit:4;stroke-dasharray:none;stroke-opacity:1"
         d="m 1442.98,1590.89 0.98,-26.08 -30.93,-0.02 0.87,26.1 z" /><path
         id="path398"
         style="fill:none;stroke:#231f20;stroke-width:3.75127006;stroke-linecap:butt;stroke-linejoin:miter;stroke-miterlimit:4;stroke-dasharray:none;stroke-opacity:1"
         d="m 1408.19,1609.86 h 9.01 v -6.55 h 6.55 v 6.7 l 9.24,-0.04 v -6.66 h 6.59 v 6.7 l 9.22,-0.04 v -15.09 c 0,-2.34 -1.87,-3.87 -4.02,-3.87 h -32.38 c -2.16,0 -4.17,1.75 -4.21,3.95 z" /><path
         id="path400"
         style="fill:#efee0e;fill-opacity:1;fill-rule:evenodd;stroke:none"
         d="m 1328.61,1609.79 h 9.02 v -6.55 h 6.59 v 6.7 l 9.18,-0.04 v -6.66 h 6.63 v 6.7 l 9.2,-0.04 v -15.09 c 0,-2.34 -1.87,-3.88 -4.03,-3.88 h -32.38 c -2.16,0 -4.17,1.77 -4.17,3.95 l -0.04,14.91" /><path
         id="path402"
         style="fill:none;stroke:#231f20;stroke-width:3.75127006;stroke-linecap:butt;stroke-linejoin:miter;stroke-miterlimit:4;stroke-dasharray:none;stroke-opacity:1"
         d="m 1328.61,1609.79 9.02,-0.03 v -6.52 h 6.59 v 6.7 l 9.18,-0.04 v -6.66 h 6.63 v 6.7 l 9.2,-0.04 v -15.09 c 0,-2.35 -1.87,-3.88 -4.03,-3.88 h -32.38 c -2.16,0 -4.17,1.77 -4.17,3.95 z" /><path
         id="path404"
         style="fill:#efee0e;fill-opacity:1;fill-rule:evenodd;stroke:none"
         d="m 1363.45,1590.89 0.97,-26.08 -30.97,-0.02 0.88,26.1 h 29.12" /><path
         id="path406"
         style="fill:none;stroke:#231f20;stroke-width:3.75959992;stroke-linecap:butt;stroke-linejoin:miter;stroke-miterlimit:4;stroke-dasharray:none;stroke-opacity:1"
         d="m 1363.45,1590.89 0.97,-26.08 -30.94,-0.02 0.85,26.1 z" /><path
         id="path408"
         style="fill:#231f20;fill-opacity:1;fill-rule:evenodd;stroke:none"
         d="m 1385.63,1598.04 c -0.22,4.68 6.56,4.72 6.48,0 v -11.54 h -6.48 v 11.54" /><path
         id="path410"
         style="fill:#231f20;fill-opacity:1;fill-rule:evenodd;stroke:none"
         d="m 1425.44,1581.3 c 0,4.54 6.3,4.61 6.23,0 v -8.9 h -6.23 v 8.9" /><path
         id="path412"
         style="fill:#231f20;fill-opacity:1;fill-rule:evenodd;stroke:none"
         d="m 1345.64,1581.3 c 0,4.54 6.3,4.61 6.19,0 v -8.9 h -6.19 v 8.9" /><path
         id="path414"
         style="fill:#efee0e;fill-opacity:1;fill-rule:evenodd;stroke:none"
         d="m 803.613,1261.19 19.16,-17.75 -21.906,-21.91 -17.84,19.09 20.586,20.57" /><path
         id="path416"
         style="fill:#efee0e;fill-opacity:1;fill-rule:evenodd;stroke:none"
         d="m 811.633,1132.65 c -28.567,30 -14.719,57.72 -14.653,57.94 0.04,0.25 29.883,14.98 58.965,-14.21 l -44.312,-43.73" /><path
         id="path418"
         style="fill:#efee0e;fill-opacity:1;fill-rule:evenodd;stroke:none"
         d="m 757.949,1150.57 30.031,-37.25 22,21.89 c -27.609,28.06 -11.375,53.55 -10.761,53.95 0.437,0.51 27.285,15.01 54.051,-10.65 l 22.043,22.01 -37.903,29.91 -79.461,-79.86" /><path
         id="path420"
         style="fill:none;stroke:#231f20;stroke-width:3.74519992;stroke-linecap:butt;stroke-linejoin:miter;stroke-miterlimit:4;stroke-dasharray:none;stroke-opacity:1"
         d="m 757.949,1150.49 30.031,-37.25 22,21.91 c -27.609,28.04 -11.375,53.53 -10.761,53.94 0.437,0.51 27.285,15.01 54.051,-10.66 l 22.003,22.01 -37.863,29.95 -79.461,-79.86 z" /><path
         id="path422"
         style="fill:#efee0e;fill-opacity:1;fill-rule:evenodd;stroke:none"
         d="m 786.66,1111.63 89.863,89.9 c 1.907,1.87 5.313,1.55 7.625,-0.72 2.27,-2.27 2.598,-5.68 0.696,-7.59 l -89.871,-89.87 c -1.907,-1.9 -5.317,-1.57 -7.59,0.7 -2.266,2.28 -2.586,5.72 -0.723,7.58" /><path
         id="path424"
         style="fill:none;stroke:#231f20;stroke-width:3.74572992;stroke-linecap:butt;stroke-linejoin:miter;stroke-miterlimit:4;stroke-dasharray:none;stroke-opacity:1"
         d="m 786.66,1111.63 89.903,89.9 c 1.867,1.87 5.3,1.55 7.585,-0.72 2.27,-2.27 2.598,-5.68 0.696,-7.59 l -89.871,-89.87 c -1.907,-1.9 -5.317,-1.57 -7.59,0.7 -2.266,2.28 -2.586,5.72 -0.723,7.58 z" /><path
         id="path426"
         style="fill:#efee0e;fill-opacity:1;fill-rule:evenodd;stroke:none"
         d="m 819.141,1144.48 c -17.461,17.69 -10.547,34.57 -10.469,34.61 0,0 17.539,7.29 35.039,-10.04 l -24.57,-24.57" /><path
         id="path428"
         style="fill:none;stroke:#231f20;stroke-width:3.72772002;stroke-linecap:butt;stroke-linejoin:miter;stroke-miterlimit:4;stroke-dasharray:none;stroke-opacity:1"
         d="m 819.141,1144.48 c -17.461,17.69 -10.547,34.57 -10.469,34.61 0,0 17.539,7.29 35.039,-10 l -24.57,-24.57" /><path
         id="path430"
         style="fill:#efee0e;fill-opacity:1;fill-rule:evenodd;stroke:none"
         d="m 740.77,1161.29 86.171,86.17 c 1.789,1.8 4.973,1.61 7.036,-0.44 2.046,-2.05 2.222,-5.23 0.437,-7.03 l -86.172,-86.17 c -1.797,-1.79 -4.98,-1.61 -7.031,0.44 -2.051,2.05 -2.234,5.24 -0.441,7.03" /><path
         id="path432"
         style="fill:none;stroke:#231f20;stroke-width:3.74257994;stroke-linecap:butt;stroke-linejoin:miter;stroke-miterlimit:4;stroke-dasharray:none;stroke-opacity:1"
         d="m 740.77,1161.29 86.171,86.17 c 1.789,1.8 4.973,1.61 7.036,-0.44 2.046,-2.05 2.222,-5.23 0.437,-7.03 l -86.172,-86.17 c -1.797,-1.79 -4.98,-1.61 -7.031,0.44 -2.051,2.05 -2.234,5.24 -0.441,7.03 z" /><path
         id="path434"
         style="fill:#efee0e;fill-opacity:1;fill-rule:evenodd;stroke:none"
         d="m 750.078,1155.68 82.395,82.41 c 1.757,1.71 4.863,1.46 6.922,-0.59 2.05,-2.05 2.304,-5.13 0.546,-6.88 l -82.39,-82.4 c -1.731,-1.76 -4.848,-1.51 -6.899,0.55 -2.039,2.09 -2.3,5.17 -0.574,6.91" /><path
         id="path436"
         style="fill:none;stroke:#231f20;stroke-width:3.74257994;stroke-linecap:butt;stroke-linejoin:miter;stroke-miterlimit:4;stroke-dasharray:none;stroke-opacity:1"
         d="m 750.078,1155.68 82.395,82.41 c 1.757,1.71 4.832,1.46 6.882,-0.59 2.09,-2.05 2.344,-5.17 0.586,-6.88 l -82.39,-82.4 c -1.731,-1.76 -4.848,-1.51 -6.899,0.58 -2.039,2.06 -2.3,5.14 -0.574,6.88 z" /><path
         id="path438"
         style="fill:#efee0e;fill-opacity:1;fill-rule:evenodd;stroke:none"
         d="m 720.891,1238.71 6.367,6.34 4.605,-4.62 4.66,4.66 -4.714,4.71 6.55,6.49 4.688,-4.69 4.648,4.65 -4.726,4.73 6.551,6.51 10.668,-10.68 c 1.636,-1.65 1.414,-4.08 -0.122,-5.58 l -22.878,-22.89 c -1.543,-1.57 -4.208,-1.72 -5.75,-0.18 l -10.547,10.51" /><path
         id="path440"
         style="fill:none;stroke:#231f20;stroke-width:3.75187993;stroke-linecap:butt;stroke-linejoin:miter;stroke-miterlimit:4;stroke-dasharray:none;stroke-opacity:1"
         d="m 720.586,1238.42 6.531,6.47 4.613,-4.61 4.762,4.73 -4.722,4.73 6.66,6.66 4.722,-4.72 4.758,4.76 -4.726,4.71 6.671,6.71 10.653,-10.69 c 1.687,-1.69 1.426,-4.1 -0.149,-5.69 l -23.394,-23.39 c -1.582,-1.58 -4.289,-1.75 -5.832,-0.22 l -10.547,10.51 z" /><path
         id="path442"
         style="fill:#efee0e;fill-opacity:1;fill-rule:evenodd;stroke:none"
         d="m 759.375,1248.66 35.715,-32.73 -22.942,-22.75 -32.695,35.72 19.922,19.76" /><path
         id="path444"
         style="fill:none;stroke:#231f20;stroke-width:3.7423501;stroke-linecap:butt;stroke-linejoin:miter;stroke-miterlimit:4;stroke-dasharray:none;stroke-opacity:1"
         d="m 759.375,1248.6 35.676,-32.75 -22.903,-22.73 -32.695,35.74 19.922,19.74" /><path
         id="path446"
         style="fill:#efee0e;fill-opacity:1;fill-rule:evenodd;stroke:none"
         d="m 765.637,1249.95 6.375,6.34 4.648,-4.61 4.617,4.65 -4.722,4.72 6.55,6.48 4.727,-4.69 4.648,4.65 -4.726,4.73 6.523,6.51 10.657,-10.68 c 1.675,-1.65 1.421,-4.08 -0.071,-5.58 l -22.89,-22.92 c -1.543,-1.53 -4.207,-1.69 -5.789,-0.15 l -10.547,10.51" /><path
         id="path448"
         style="fill:none;stroke:#231f20;stroke-width:3.75961995;stroke-linecap:butt;stroke-linejoin:miter;stroke-miterlimit:4;stroke-dasharray:none;stroke-opacity:1"
         d="m 803.613,1261.19 19.153,-17.75 -21.868,-21.91 -17.824,19.09 z" /><path
         id="path450"
         style="fill:none;stroke:#231f20;stroke-width:3.75129008;stroke-linecap:butt;stroke-linejoin:miter;stroke-miterlimit:4;stroke-dasharray:none;stroke-opacity:1"
         d="m 765.598,1250.03 6.375,6.34 4.621,-4.62 4.644,4.65 -4.722,4.72 6.55,6.49 4.688,-4.69 4.687,4.65 -4.726,4.72 6.515,6.52 10.672,-10.69 c 1.653,-1.66 1.426,-4.07 -0.117,-5.57 l -22.89,-22.89 c -1.543,-1.54 -4.207,-1.72 -5.75,-0.18 l -10.547,10.51 z" /><path
         id="path452"
         style="fill:#efee0e;fill-opacity:1;fill-rule:evenodd;stroke:none"
         d="m 709.426,1193.7 6.375,6.38 4.609,-4.65 4.649,4.65 -4.715,4.72 6.551,6.52 4.687,-4.73 4.688,4.69 -4.727,4.73 6.523,6.51 10.645,-10.68 c 1.687,-1.65 1.434,-4.08 -0.066,-5.62 l -22.922,-22.88 c -1.543,-1.53 -4.207,-1.73 -5.75,-0.15 l -10.547,10.51" /><path
         id="path454"
         style="fill:none;stroke:#231f20;stroke-width:3.75127006;stroke-linecap:butt;stroke-linejoin:miter;stroke-miterlimit:4;stroke-dasharray:none;stroke-opacity:1"
         d="m 709.426,1193.7 6.375,6.34 4.609,-4.61 4.649,4.65 -4.715,4.72 6.551,6.52 4.714,-4.73 4.661,4.65 -4.727,4.77 6.523,6.51 10.645,-10.68 c 1.687,-1.65 1.434,-4.08 -0.066,-5.62 l -22.922,-22.88 c -1.543,-1.53 -4.207,-1.73 -5.75,-0.19 z" /><path
         id="path456"
         style="fill:#efee0e;fill-opacity:1;fill-rule:evenodd;stroke:none"
         d="m 747.363,1204.94 19.16,-17.71 -21.867,-21.91 -17.84,19.05 20.547,20.57" /><path
         id="path458"
         style="fill:none;stroke:#231f20;stroke-width:3.75959992;stroke-linecap:butt;stroke-linejoin:miter;stroke-miterlimit:4;stroke-dasharray:none;stroke-opacity:1"
         d="m 747.363,1204.94 19.16,-17.71 -21.867,-21.91 -17.84,19.08 z" /><path
         id="path460"
         style="fill:#231f20;fill-opacity:1;fill-rule:evenodd;stroke:none"
         d="m 758.02,1225.63 c -3.477,3.19 1.277,8.02 4.617,4.62 l 8.125,-8.17 -4.571,-4.58 -8.171,8.13" /><path
         id="path462"
         style="fill:#231f20;fill-opacity:1;fill-rule:evenodd;stroke:none"
         d="m 798.008,1241.97 c -3.223,3.18 1.172,7.73 4.394,4.39 l 6.309,-6.3 -4.402,-4.39 -6.301,6.3" /><path
         id="path464"
         style="fill:#231f20;fill-opacity:1;fill-rule:evenodd;stroke:none"
         d="m 741.609,1185.54 c -3.25,3.18 1.145,7.68 4.36,4.35 l 6.297,-6.3 -4.356,-4.35 -6.301,6.3" /><path
         id="path466"
         style="fill:#ffffff;fill-opacity:1;fill-rule:nonzero;stroke:none"
         d="m 1082.33,1288.48 c -6.15,0 -11.13,-5.02 -11.13,-11.14 0,-6.15 4.98,-11.16 11.13,-11.16 6.16,0 11.15,5.01 11.15,11.16 0,6.12 -5.02,11.14 -11.15,11.14" /><path
         id="path468"
         style="fill:#ffffff;fill-opacity:1;fill-rule:nonzero;stroke:none"
         d="m 1020.56,1288.41 c -6.16,0 -11.14,-5.02 -11.14,-11.14 0,-6.15 4.98,-11.17 11.14,-11.17 6.15,0 11.13,5.02 11.13,11.17 0,6.12 -4.98,11.14 -11.13,11.14" /><path
         id="path470"
         style="fill:#ffffff;fill-opacity:1;fill-rule:nonzero;stroke:none"
         d="m 1051.17,1319.75 c -6.15,0 -11.16,-5.02 -11.16,-11.17 0,-6.11 5.01,-11.13 11.16,-11.13 6.12,0 11.13,5.02 11.13,11.13 0,6.15 -5.01,11.17 -11.13,11.17" /><path
         id="path472"
         style="fill:#ffffff;fill-opacity:1;fill-rule:nonzero;stroke:none"
         d="m 1082.41,1349.71 c -6.15,0 -11.17,-5.01 -11.17,-11.17 0,-6.12 5.02,-11.14 11.17,-11.14 6.12,0 11.13,5.02 11.13,11.14 0,6.16 -5.01,11.17 -11.13,11.17" /><path
         id="path474"
         style="fill:#ffffff;fill-opacity:1;fill-rule:nonzero;stroke:none"
         d="m 1238.49,1481.54 c -6.16,0 -11.18,-4.98 -11.18,-11.13 0,-6.12 5.02,-11.13 11.18,-11.13 6.12,0 11.13,4.98 11.13,11.13 0,6.15 -5.01,11.13 -11.13,11.13" /><path
         id="path476"
         style="fill:#ffffff;fill-opacity:1;fill-rule:nonzero;stroke:none"
         d="m 1177.62,1481.46 c -6.11,0 -11.13,-5 -11.13,-11.16 0,-6.11 5.02,-11.13 11.13,-11.13 6.16,0 11.14,5.02 11.14,11.13 0,6.16 -4.98,11.16 -11.14,11.16" /><path
         id="path478"
         style="fill:#ffffff;fill-opacity:1;fill-rule:nonzero;stroke:none"
         d="m 1207.29,1512.81 c -6.12,0 -11.14,-5.01 -11.14,-11.12 0,-6.16 5.02,-11.17 11.14,-11.17 6.16,0 11.17,5.01 11.17,11.17 0,6.11 -5.01,11.12 -11.17,11.12" /><path
         id="path480"
         style="fill:#ffffff;fill-opacity:1;fill-rule:nonzero;stroke:none"
         d="m 1238.53,1542.77 c -6.12,0 -11.14,-5.02 -11.14,-11.13 0,-6.15 5.02,-11.13 11.14,-11.13 6.15,0 11.17,4.98 11.17,11.13 0,6.11 -5.02,11.13 -11.17,11.13" /><path
         id="path482"
         style="fill:#ffffff;fill-opacity:1;fill-rule:nonzero;stroke:none"
         d="m 1177.52,1542.8 c -6.16,0 -11.17,-4.97 -11.17,-11.12 0,-6.11 5.01,-11.14 11.17,-11.14 6.11,0 11.12,5.03 11.12,11.14 0,6.15 -5.01,11.12 -11.12,11.12" /><path
         id="path484"
         style="fill:#ffffff;fill-opacity:1;fill-rule:nonzero;stroke:none"
         d="m 1082.89,1481.84 c -6.15,0 -11.18,-4.98 -11.18,-11.14 0,-6.11 5.03,-11.13 11.18,-11.13 6.11,0 11.12,5.02 11.12,11.13 0,6.16 -5.01,11.14 -11.12,11.14" /><path
         id="path486"
         style="fill:#ffffff;fill-opacity:1;fill-rule:nonzero;stroke:none"
         d="m 1020.56,1481.77 c -6.16,0 -11.14,-4.99 -11.14,-11.15 0,-6.11 4.98,-11.12 11.14,-11.12 6.15,0 11.13,4.98 11.13,11.12 0,6.16 -4.98,11.15 -11.13,11.15" /><path
         id="path488"
         style="fill:#ffffff;fill-opacity:1;fill-rule:nonzero;stroke:none"
         d="m 1051.69,1513.11 c -6.12,0 -11.14,-4.99 -11.14,-11.13 0,-6.11 5.02,-11.14 11.14,-11.14 6.15,0 11.12,5.03 11.12,11.14 0,6.14 -4.97,11.13 -11.12,11.13" /><path
         id="path490"
         style="fill:#ffffff;fill-opacity:1;fill-rule:nonzero;stroke:none"
         d="m 1082.96,1543.07 c -6.15,0 -11.17,-4.98 -11.17,-11.14 0,-6.11 5.02,-11.13 11.17,-11.13 6.11,0 11.13,4.98 11.13,11.13 0,6.16 -5.02,11.14 -11.13,11.14" /><path
         id="path492"
         style="fill:#ffffff;fill-opacity:1;fill-rule:nonzero;stroke:none"
         d="m 1020.56,1543.14 c -6.16,0 -11.14,-5.02 -11.14,-11.14 0,-6.14 4.98,-11.16 11.14,-11.16 6.15,0 11.13,5.02 11.13,11.16 0,6.12 -4.98,11.14 -11.13,11.14" /><path
         id="path494"
         style="fill:#ffffff;fill-opacity:1;fill-rule:nonzero;stroke:none"
         d="m 926.875,1481.46 c -6.113,0 -11.121,-5 -11.121,-11.12 0,-6.15 5.008,-11.17 11.121,-11.17 6.152,0 11.145,5.02 11.145,11.17 0,6.12 -4.993,11.12 -11.145,11.12" /><path
         id="path496"
         style="fill:#ffffff;fill-opacity:1;fill-rule:nonzero;stroke:none"
         d="m 866.055,1481.4 c -6.153,0 -11.172,-5.02 -11.172,-11.18 0,-6.11 5.019,-11.12 11.172,-11.12 6.113,0 11.125,5.01 11.125,11.12 0,6.16 -5.012,11.18 -11.125,11.18" /><path
         id="path498"
         style="fill:#ffffff;fill-opacity:1;fill-rule:nonzero;stroke:none"
         d="m 895.715,1512.74 c -6.145,0 -11.164,-5.02 -11.164,-11.17 0,-6.11 5.019,-11.13 11.164,-11.13 6.109,0 11.133,5.02 11.133,11.13 0,6.15 -5.024,11.17 -11.133,11.17" /><path
         id="path500"
         style="fill:#ffffff;fill-opacity:1;fill-rule:nonzero;stroke:none"
         d="m 926.953,1542.71 c -6.113,0 -11.133,-5.02 -11.133,-11.18 0,-6.11 5.02,-11.13 11.133,-11.13 6.152,0 11.133,5.02 11.133,11.13 0,6.16 -4.981,11.18 -11.133,11.18" /><path
         id="path502"
         style="fill:#ffffff;fill-opacity:1;fill-rule:nonzero;stroke:none"
         d="m 1020.56,1349.75 c -6.16,0 -11.14,-5.02 -11.14,-11.14 0,-6.11 4.98,-11.13 11.14,-11.13 6.15,0 11.13,4.98 11.13,11.13 0,6.12 -4.98,11.14 -11.13,11.14" /><path
         id="path504"
         style="fill:#efee0e;fill-opacity:1;fill-rule:nonzero;stroke:none"
         d="m 865.867,1542.74 c -6.109,0 -11.133,-4.99 -11.133,-11.14 0,-6.11 5.024,-11.12 11.133,-11.12 6.153,0 11.137,5.01 11.137,11.12 0,6.15 -4.984,11.14 -11.137,11.14" /><path
         id="path506"
         style="fill:#ffffff;fill-opacity:1;fill-rule:nonzero;stroke:none"
         d="m 1020.56,1738.25 c -6.16,0 -11.14,-5.01 -11.14,-11.12 0,-6.16 4.98,-11.17 11.14,-11.17 6.15,0 11.13,5.01 11.13,11.17 0,6.11 -4.98,11.12 -11.13,11.12" /><path
         id="path508"
         style="fill:#ffffff;fill-opacity:1;fill-rule:nonzero;stroke:none"
         d="m 1081.6,1738.25 c -6.15,0 -11.16,-5.01 -11.16,-11.12 0,-6.16 5.01,-11.17 11.16,-11.17 6.11,0 11.14,5.01 11.14,11.17 0,6.11 -5.03,11.12 -11.14,11.12" /><path
         id="path510"
         style="fill:#ffffff;fill-opacity:1;fill-rule:nonzero;stroke:none"
         d="m 1050.33,1708.23 c -6.11,0 -11.13,-4.98 -11.13,-11.14 0,-6.11 5.02,-11.12 11.13,-11.12 6.14,0 11.17,4.97 11.17,11.12 0,6.16 -5.03,11.14 -11.17,11.14" /><path
         id="path512"
         style="fill:#ffffff;fill-opacity:1;fill-rule:nonzero;stroke:none"
         d="m 1081.52,1676.95 c -6.1,0 -11.12,-4.98 -11.12,-11.13 0,-6.11 5.02,-11.13 11.12,-11.13 6.17,0 11.19,5.02 11.19,11.13 0,6.15 -5.02,11.13 -11.19,11.13" /><path
         id="path514"
         style="fill:#ffffff;fill-opacity:1;fill-rule:nonzero;stroke:none"
         d="m 1020.56,1676.87 c -6.16,0 -11.14,-4.97 -11.14,-11.12 0,-6.12 4.98,-11.14 11.14,-11.14 6.15,0 11.13,4.98 11.13,11.14 0,6.15 -4.98,11.12 -11.13,11.12" /><path
         id="path516"
         style="fill:#ffffff;fill-opacity:1;fill-rule:nonzero;stroke:none"
         d="m 865.898,1542.74 c -6.101,0 -11.125,-5.03 -11.125,-11.14 0,-6.11 5.024,-11.12 11.125,-11.12 6.165,0 11.18,4.97 11.18,11.12 0,6.11 -5.015,11.14 -11.18,11.14" /></g></g></svg>