<?xml version="1.0" encoding="UTF-8" standalone="no"?>
<svg
   xmlns:dc="http://purl.org/dc/elements/1.1/"
   xmlns:cc="http://creativecommons.org/ns#"
   xmlns:rdf="http://www.w3.org/1999/02/22-rdf-syntax-ns#"
   xmlns:svg="http://www.w3.org/2000/svg"
   xmlns="http://www.w3.org/2000/svg"
   viewBox="0 0 600 400"
   height="400"
   width="600"
   xml:space="preserve"
   id="svg2"
   version="1.1"><metadata
     id="metadata8"><rdf:RDF><cc:Work
         rdf:about=""><dc:format>image/svg+xml</dc:format><dc:type
           rdf:resource="http://purl.org/dc/dcmitype/StillImage" /></cc:Work></rdf:RDF></metadata><defs
     id="defs6" /><g
     transform="matrix(1.3333333,0,0,-1.3333333,0,400)"
     id="g10"><g
       transform="scale(0.1)"
       id="g12"><path
         id="path14"
         style="fill:#e41d25;fill-opacity:1;fill-rule:nonzero;stroke:none"
         d="M 0,0 H 4500 V 3000 H 0 Z" /><path
         id="path16"
         style="fill:#ffffff;fill-opacity:1;fill-rule:nonzero;stroke:none"
         d="m 1593.75,2250 c 414.22,0 750,-335.78 750,-750 0,-414.22 -335.78,-750 -750,-750 -414.22,0 -750,335.78 -750,750 0,414.22 335.78,750 750,750" /><path
         id="path18"
         style="fill:#e41d25;fill-opacity:1;fill-rule:nonzero;stroke:none"
         d="m 1781.25,2100 c 331.37,0 600,-268.63 600,-600 0,-331.37 -268.63,-600 -600,-600 -331.37,0 -600,268.63 -600,600 0,331.37 268.63,600 600,600" /><path
         id="path20"
         style="fill:#ffffff;fill-opacity:1;fill-rule:nonzero;stroke:none"
         d="m 2187.5,1500 678.4,-220.43 -419.3,577.07 V 1143.36 L 2865.9,1720.43 2187.5,1500" /></g></g></svg>